<svg width="80" height="80" viewBox="0 0 80 80" fill="none" xmlns="http://www.w3.org/2000/svg">
<path d="M25.68 22.7135C22.6407 19.7867 21.7367 16.1856 23.6028 12.3097C24.3219 12.728 26.0196 13.2339 26.7244 13.7642C25.4333 16.4347 26.8928 18.562 28.5999 20.5539C31.224 18.8746 34.7522 18.3797 37.7754 18.5133C43.7103 18.7756 48.9019 22.2298 52.2238 27.0238C52.5053 27.4303 52.8149 27.957 53.1491 28.3186L53.1906 28.363C52.0188 28.4291 50.9676 28.2831 49.7678 28.4925C45.0685 29.3128 40.2862 31.4804 36.3184 34.0904C31.8339 37.0881 27.6056 40.6776 24.7158 45.2894C24.4937 45.6438 23.6785 46.9422 23.6028 47.2974C17.8957 39.2642 18.9469 29.568 25.68 22.7135ZM34.8896 21.5716V23.8001C38.8637 23.7036 40.8922 23.9303 44.1999 26.2001L44.7999 25.6001C44.7999 25.6001 45.3999 25.0001 45.7034 24.8786C44.2556 21.3654 36.4898 20.7197 34.8896 21.5716Z" fill="#704A2D"/>
<path d="M27.9849 46.7619C28.0981 46.5042 28.2072 46.3245 28.3712 46.0939C33.1004 39.4488 42.8915 33.3256 50.8684 31.8899C50.9208 31.8838 51.0545 31.854 51.0871 31.9138C53.5592 36.4475 57.0391 40.8741 58.9713 45.6588C60.7541 50.0737 60.4339 55.6452 58.0006 59.7323C56.5276 62.2065 55.5649 63.279 55.674 66.4272C54.3444 65.757 52.8063 65.0965 51.2993 65.2381C47.4427 65.6006 44.0444 65.0267 40.5794 63.174C36.8635 60.986 35.4064 58.9483 33.19 55.392L28.9486 48.4747C28.653 47.9974 28.1512 47.2643 27.9849 46.7619Z" fill="#704A2D"/>
</svg>
