<svg width="672" height="672" viewBox="0 0 672 672" fill="none" xmlns="http://www.w3.org/2000/svg">
<rect width="672" height="672" fill="#704A2D"/>
<path d="M378.454 97.895C380.567 97.6323 381.741 97.3335 383.841 97.814C385.492 98.9317 388.157 112.699 390.016 116.834L390.296 117.452C392.34 112.831 392.64 104.511 396.975 102.041C398.925 100.93 402.06 102.885 403.965 103.872C401.495 110.323 399.163 119.032 397.168 125.81C403.765 135.084 410.737 144.25 417.201 153.725C420.793 158.99 425.262 166.601 429.121 171.21C430.585 171.76 432.802 172.267 434.365 172.668C450.637 176.855 463.238 183.551 475.199 195.352C509.369 229.066 506.616 291.747 458.34 318.747C445.229 326.079 435.44 329.004 428.585 336.666C422.855 342.962 419.751 350.782 419.868 359.333C419.939 364.479 422.008 366.877 425.448 370.156C424.489 374.301 423.889 376.343 421.65 379.968C403.214 374.092 397.339 371.108 382.424 359.151C381.403 360.228 380.293 361.551 379.295 362.679C393.054 374.366 405.922 383.048 423.843 387.01C432.308 388.881 447.762 391.848 449.512 401.924C452.169 417.228 433.322 421.542 422.188 423.411C398.107 427.451 373.258 424.162 353.065 409.733C351.812 410.842 350.708 412.203 349.605 413.473C366.53 430.129 399.038 433.809 421.559 429.854C425.945 439.268 429.677 447.224 436.781 455.08C439.238 457.797 442.535 459.921 444.681 462.768C447.114 465.997 448.101 473.41 452.239 475.369C460.509 479.284 465.278 472.127 471.817 468.521C473.755 467.453 475.957 466.839 477.946 466.24C495.529 490.963 493.725 521.071 480.488 547.163C480.934 547.148 481.379 547.139 481.824 547.136C499.218 547 513.644 553.658 513.412 573.662C492.035 574.359 467.308 574.233 445.825 574.01C445.578 551.066 432.388 545.017 412.049 542.333C414.314 537.238 417.062 531.179 418.407 525.832C422.676 508.864 421.3 490.987 412.397 475.774C405.21 463.286 393.351 454.168 379.434 450.431C382.82 453.505 386.946 456.345 390.348 459.386C399.997 468.013 407.435 477.956 411.133 490.497C417.974 513.699 409.807 529.304 399.629 548.821C410.348 548.716 421.27 548.718 430.354 555.201C434.571 558.211 441.867 568.334 438.209 573.5C434.648 574.867 383.417 574.404 376.63 574.189C347.416 573.262 317.394 580.161 296.376 556.15C287.331 556.699 280.24 557.208 271.201 556.742C221.847 551.229 185.513 525.657 165.704 479.731C138.458 416.559 173.227 359.709 176.26 296.338C177.848 263.144 169.337 234.568 143.143 212.648C141.514 211.272 135.838 207.152 136.004 205.166C144.469 201.534 165.856 199.43 175.34 198.624C222.783 194.59 270.286 216.555 283.735 265.259C294.658 304.837 281.322 346.109 269.639 384.053C258.969 418.704 246.652 464.81 278.355 492.977C272.995 454.433 311.662 341.955 326.004 302.396C323.553 298.854 321.121 295.156 319.228 291.289C309.414 271.2 308.02 248.028 315.355 226.909C306.437 207.951 301.908 185.308 295.518 165.61C288.319 162.657 280.831 161.293 273.386 159.172C268.971 157.915 272.353 152.189 273.695 149.578C279.08 151.258 285.542 153.81 291.031 155.716C286.924 148.011 281.906 145.191 277.04 138.321C277.568 137.454 278.144 136.619 278.767 135.817C279.995 134.217 280.65 133.469 282.703 133.209C285.99 134.774 294.513 145.313 297.796 148.864C296.701 141.941 295.629 136.921 295.821 129.879C298.652 129.802 301.635 129.921 304.482 129.987C305.163 138.459 305.837 145.382 307.168 153.782C323.762 162.135 339.897 171.37 355.504 181.449C361.177 177.777 371.085 174.407 377.734 171.868C378.241 157.974 380.353 145.753 381.145 132.372C375.81 126.325 368.886 120.022 363.105 113.858C370.16 105.056 374.981 114.58 381.959 120.392C380.597 114.762 377.173 105.876 376.748 100.175C376.672 99.1498 377.718 98.495 378.454 97.895ZM467.736 266.271C470.539 262.289 476.506 245.678 467.104 247.034C450.589 251.958 439.104 259.779 463.425 266.663C464.112 269.291 464.537 270.706 465.523 273.242C462.035 275.961 455.736 280.479 454.828 281.583C453.921 282.685 453.969 283.305 454.53 284.775C457.155 287.623 462.054 283.16 464.441 281.339C466.898 279.467 472.981 274.601 473.662 273.242C474.343 271.883 473.489 270.12 472.31 269.855C471.274 269.623 470.015 270.707 469.429 271C469.428 270.373 468.328 269.097 467.736 266.271ZM417.389 250.312C422.948 240.759 414.049 221.646 402.908 222.772C391.274 226.677 392.96 245.654 401.086 252.522C403.695 254.727 407.356 255.327 410.679 254.492C414.001 253.656 416.122 252.488 417.389 250.312ZM477.041 233.363C488.108 226.315 476.326 203.632 466.921 205.8C459.413 207.532 462.91 227.819 470.282 232.687C472.144 233.916 474.81 234.784 477.041 233.363Z" fill="white"/>
<path d="M433.798 369.535C440.12 370.282 446.701 370.526 453.124 371.327C472.291 373.719 491.328 378.201 509.137 385.766C512.85 387.344 516.968 388.57 520.759 389.962C521.841 390.358 522.053 391.255 522.349 392.138C522.228 392.643 522.107 393.148 521.986 393.653C512.857 397.377 503.49 399.349 501.754 411.104C500.441 419.996 504.482 425.497 509.501 432.389L509.316 432.789C505.23 441.861 494.375 451.269 485.687 455.933C482.409 457.54 468.793 462.172 467.958 462.814C450.209 476.453 457.928 465.867 447.035 455.396C438.289 446.987 433.915 441.455 428.922 428.689C433.661 427.561 437.677 426.496 442.24 424.507C453.417 419.634 459.563 406.672 453.585 395.399C448.125 385.105 439.291 385.257 429.441 382.209C430.168 377.132 431.28 373.91 433.798 369.535Z" fill="white"/>
<path d="M498.106 305.507C502.703 306.61 506.577 312.855 509.334 316.659C500.887 321.379 497.072 324.876 493.105 333.593C507.286 338.223 520.652 343.706 530.624 356.419C536.484 363.889 538.778 378.5 531.152 386.494C529.779 387.935 520.902 384.281 518.783 383.234C510.489 379.131 502.169 376.218 493.325 373.36C476.342 368.966 459.977 365.145 442.368 364.35C437.2 363.321 425.134 365.698 426.202 357.415C429.702 330.267 460.093 329.009 481.999 331.84C485.171 320.423 489.43 313.239 498.106 305.507Z" fill="white"/>
<path d="M524.592 399.844C532.748 398.946 533.218 410.893 532.205 416.458C530.889 423.693 525.544 431.296 517.257 429.717C512.774 426.921 508.703 422.714 507.737 417.341C507.114 413.776 507.961 410.112 510.085 407.182C513.803 401.95 518.831 400.97 524.592 399.844Z" fill="white"/>
</svg>
