<svg width="80" height="80" viewBox="0 0 80 80" fill="none" xmlns="http://www.w3.org/2000/svg">
<path d="M54.3857 22.0548C54.4242 22.6245 54.3937 23.2285 54.3887 23.8038L54.3848 27.9406C54.3849 28.9209 54.1444 32.2661 54.7275 32.9698C55.9264 34.415 58.9658 30.9638 59 30.9249C59.0162 30.909 61.9074 28.0569 63.8809 26.0724C64.6297 26.7032 65.3135 27.4258 66 28.1251C63.1353 32.5272 61.4902 34.6583 58.5146 39.0636C54.2448 45.564 53.0702 49.9957 55.6533 57.3898C56.239 59.0663 57.0863 60.5233 57.7168 62.1534C57.123 63.7913 55.7313 64.7054 54.29 65.5861C52.7591 66.43 52.2013 66.5938 50.5 66.9562C50.4411 66.0771 49.7664 62.9564 49.5 61.962C49.2357 60.9758 48.9025 58.9856 48.8975 58.9552C48.7032 58.2301 48.6429 57.5211 48.5801 56.7931L46.3594 57.1564C46.2452 57.7415 46.261 58.499 46.5 59.4552L48 67.7081C42.9686 68.9562 35.9208 69.4907 30.8369 68.6115C30.0877 68.4819 29.3398 68.3241 28.5801 68.2794L30.582 61.0343C30.5818 60.0779 30.7455 58.9486 30.6689 57.9855L27.9443 57.8361C27.8745 58.664 27.9998 59.6171 28 60.4464L27 63.9464C26.7332 64.9421 26.0375 66.6712 26 67.4464C22.0457 65.5992 20.2541 66.1861 18 61.962C20.8448 56.7054 20.9592 54.2224 20.959 48.4142V22.0548C21.7556 22.415 22.5234 23.0888 23.457 23.5343C31.7015 27.4683 47.3049 27.7535 54.3857 22.0548ZM36.4385 34.9357C26.2108 35.6594 26.7337 52.3666 36.7559 52.6447C46.055 51.9639 46.8584 35.7074 36.4385 34.9357ZM33.25 42.4249C34.2546 43.8827 37.2499 44.9249 39.9912 45.1866C39.2408 47.1305 39.0871 49.6717 35.4717 50.0607L33.9648 50.4249L32.25 47.9249C32.2441 47.919 31.256 46.9115 33.25 42.4249ZM39.9551 37.1749L39.4785 39.0197C39.6483 39.1216 39.8193 39.2336 39.9912 39.3546C41.8195 40.6419 41.3309 42.9186 40.9961 43.7286C36.9787 43.7286 33.92 41.559 33.25 40.4249C34.2996 38.6757 35.8385 37.9065 37.6074 38.2628L38.0195 36.6749L39.9551 37.1749ZM36.5518 10.9786C41.8444 10.78 48.9251 11.8545 53.1855 15.2433C54.776 16.5086 54.6721 18.2347 53.207 19.547C49.7274 22.6634 43.5314 23.6861 39.0098 23.7042C33.6263 23.7059 27.1369 23.1822 22.7129 19.9376C19.2519 17.3992 22.0195 14.8986 24.7314 13.5372C28.4486 11.6716 32.4162 11.2961 36.4854 10.9816L36.5518 10.9786ZM46.4512 15.4249C43.9013 13.9592 39.8417 13.6936 36.7197 13.8214C34.1461 14.0279 27.5041 14.4738 27.9365 17.1642C28.3442 19.6954 36.7893 19.8418 39.2119 19.7843C43.3007 19.7842 51.178 18.1425 46.4512 15.4249ZM36.5098 15.7872C39.1402 15.6397 44.2797 15.9221 44.2812 16.8986C44.2807 17.8751 41.3488 17.7184 38.8652 17.8761C36.2169 17.9269 30.9349 17.659 30.9336 16.8986C30.9349 16.1383 34.3235 16.029 36.5098 15.7872Z" fill="#704A2D"/>
</svg>
