<svg width="80" height="80" viewBox="0 0 80 80" fill="none" xmlns="http://www.w3.org/2000/svg">
<path d="M19.8065 28.1103C23.5627 28.6878 29.6017 25.543 34.047 21.6461C35.9787 25.6805 39.7212 29.6623 35.0045 35.8829L33.3565 38.773L26.9256 37.7706C26.8931 37.7713 23.8688 37.8073 19.8065 28.1103ZM21.316 11.2777L23.3398 14.4911C24.0784 14.2217 24.8799 13.9963 25.7441 13.8197C30.4472 12.8588 33.2826 16.9748 34.055 18.6905C28.1395 24.9661 20.2467 26.5494 17.4891 25.926C16.1875 21.304 17.5935 17.4984 21.5026 15.3253L19.6245 12.3432L21.316 11.2777Z" fill="#704A2D"/>
<path d="M19.8066 58.1102C23.5629 58.6875 29.6019 55.5429 34.0471 51.646C35.9787 55.6804 39.721 59.6622 35.0045 65.8828L33.356 68.7736L26.9257 67.7705C26.9257 67.7705 23.891 67.86 19.8066 58.1102ZM21.3154 41.2783L23.3392 44.4917C24.0778 44.2223 24.8799 43.9962 25.7442 43.8196C30.4468 42.8592 33.2827 46.9746 34.0551 48.6904C28.1398 54.9659 20.247 56.5491 17.4892 55.9259C16.1877 51.3041 17.5933 47.499 21.502 45.326L19.624 42.3438L21.3154 41.2783Z" fill="#704A2D"/>
<path d="M44.8066 28.1102C48.5629 28.6875 54.6019 25.5429 59.0471 21.646C60.9787 25.6804 64.721 29.6622 60.0045 35.8828L58.356 38.7736L51.9257 37.7705C51.9257 37.7705 48.891 37.86 44.8066 28.1102ZM46.3154 11.2783L48.3392 14.4917C49.0778 14.2223 49.8799 13.9962 50.7442 13.8196C55.4468 12.8592 58.2827 16.9746 59.0551 18.6904C53.1398 24.9659 45.247 26.5491 42.4892 25.9259C41.1877 21.3041 42.5933 17.499 46.502 15.326L44.624 12.3438L46.3154 11.2783Z" fill="#704A2D"/>
<path d="M44.8065 58.1103C48.5627 58.6877 54.6017 55.543 59.047 51.6461C60.9786 55.6804 64.7214 59.6618 60.0051 65.8822L58.3565 68.773L51.9256 67.7706C51.8877 67.7714 48.8652 67.7986 44.8065 58.1103ZM46.316 41.2777L48.3397 44.4911C49.0783 44.2218 49.8799 43.9963 50.744 43.8198C55.4472 42.8589 58.2827 46.9748 59.055 48.6905C53.1395 54.966 45.2467 56.5494 42.4891 55.926C41.1875 51.304 42.5936 47.4984 46.5026 45.3254L44.6245 42.3433L46.316 41.2777Z" fill="#704A2D"/>
</svg>
