<svg width="672" height="672" viewBox="0 0 672 672" fill="none" xmlns="http://www.w3.org/2000/svg">
<g clip-path="url(#clip0_17_598)">
<rect width="672" height="672" rx="336" fill="#704A2D"/>
<path d="M321.461 10.7471C326.162 10.1626 328.773 9.49855 333.445 10.5674C337.12 13.0543 343.049 43.6845 347.184 52.8867L347.809 54.2607C352.358 43.9794 353.024 25.4643 362.67 19.9688C367.01 17.4974 373.984 21.8475 378.221 24.043C372.725 38.3968 367.537 57.7741 363.098 72.8564C377.777 93.4902 393.291 113.885 407.674 134.968C415.665 146.682 425.608 163.616 434.194 173.872C437.452 175.095 442.386 176.222 445.864 177.116C482.068 186.43 510.105 201.331 536.719 227.589C612.747 302.603 606.62 442.067 499.207 502.141C470.035 518.455 448.252 524.962 433.001 542.01C420.252 556.02 413.346 573.419 413.607 592.445C413.765 603.896 418.368 609.231 426.022 616.525C423.888 625.749 422.553 630.293 417.572 638.358C376.551 625.284 363.481 618.646 330.295 592.041C328.023 594.438 325.554 597.381 323.333 599.892C353.948 625.894 382.577 645.211 422.451 654.027C441.286 658.19 475.672 664.791 479.564 687.212C485.477 721.263 443.542 730.86 418.767 735.018C365.189 744.008 309.899 736.689 264.971 704.585C262.183 707.053 259.725 710.082 257.272 712.908C294.93 749.968 367.261 758.153 417.368 749.354C427.127 770.3 435.431 788.003 451.238 805.482C456.705 811.528 464.041 816.255 468.815 822.589C474.23 829.773 476.426 846.267 485.633 850.624C504.034 859.335 514.645 843.413 529.195 835.39C533.505 833.013 538.403 831.648 542.83 830.314C581.951 885.324 577.936 952.311 548.485 1010.37C549.476 1010.33 550.468 1010.31 551.459 1010.31C590.16 1010 622.26 1024.82 621.743 1069.33C574.179 1070.88 519.16 1070.6 471.36 1070.1C470.811 1019.05 441.464 1005.59 396.209 999.62C401.249 988.285 407.361 974.802 410.355 962.904C419.853 925.15 416.792 885.375 396.985 851.525C380.993 823.739 354.605 803.453 323.639 795.139C331.175 801.978 340.355 808.297 347.925 815.064C369.394 834.26 385.943 856.381 394.171 884.284C409.392 935.909 391.219 970.631 368.574 1014.05C392.424 1013.82 416.726 1013.83 436.938 1028.25C446.321 1034.95 462.554 1057.47 454.415 1068.96C446.493 1072.01 332.505 1070.98 317.403 1070.5C252.402 1068.44 185.602 1083.79 138.838 1030.36C118.712 1031.58 102.935 1032.72 82.823 1031.68C-26.991 1019.41 -107.833 962.516 -151.907 860.331C-212.531 719.774 -135.168 593.283 -128.42 452.283C-124.886 378.425 -143.824 314.843 -202.108 266.07C-205.732 263.009 -218.361 253.843 -217.991 249.423C-199.158 241.342 -151.57 236.661 -130.468 234.867C-24.9068 225.892 80.7862 274.763 110.712 383.131C135.016 471.192 105.343 563.023 79.3464 647.449C55.6067 724.546 28.2013 827.131 98.741 889.803C86.8137 804.042 172.849 553.78 204.76 465.761C199.306 457.88 193.896 449.652 189.682 441.046C167.847 396.35 164.745 344.793 181.067 297.803C161.222 255.622 151.146 205.241 136.927 161.412C120.909 154.843 104.25 151.807 87.6843 147.089C77.8611 144.29 85.3868 131.551 88.3738 125.74C100.354 129.479 114.73 135.157 126.944 139.398C117.805 122.254 106.642 115.981 95.8142 100.693C96.9883 98.7655 98.2708 96.9069 99.655 95.123C102.388 91.5621 103.847 89.899 108.415 89.3213C115.727 92.8013 134.69 116.25 141.996 124.151C139.56 108.747 137.175 97.5796 137.603 81.9111C143.902 81.74 150.54 82.0047 156.875 82.1504C158.389 101 159.888 116.405 162.849 135.094C199.772 153.679 235.671 174.228 270.396 196.654C283.018 188.484 305.065 180.986 319.859 175.336C320.986 144.423 325.684 117.229 327.446 87.4561C315.576 74.0017 300.17 59.9779 287.309 46.2627C303.006 26.6792 313.733 47.8702 329.26 60.8027C326.23 48.2767 318.611 28.5054 317.666 15.8203C317.496 13.5384 319.822 12.082 321.461 10.7471ZM520.112 385.383C526.347 376.524 539.626 339.563 518.704 342.58C481.959 353.536 456.406 370.939 510.518 386.254C512.048 392.103 512.993 395.25 515.188 400.892C507.425 406.942 493.41 416.996 491.391 419.45C489.374 421.904 489.481 423.284 490.73 426.555C496.569 432.894 507.469 422.958 512.782 418.908C518.247 414.743 531.78 403.915 533.297 400.892C534.812 397.868 532.914 393.946 530.289 393.357C527.983 392.841 525.181 395.254 523.877 395.906C523.877 394.511 521.43 391.672 520.112 385.383ZM408.088 349.873C420.457 328.618 400.657 286.089 375.869 288.597C349.983 297.286 353.736 339.512 371.816 354.792C377.622 359.699 385.767 361.033 393.16 359.174C400.553 357.315 405.27 354.715 408.088 349.873ZM540.816 312.162C565.44 296.481 539.224 246.011 518.299 250.835C501.593 254.688 509.374 299.827 525.778 310.658C529.921 313.394 535.851 315.324 540.816 312.162Z" fill="white"/>
<path d="M444.602 615.146C458.668 616.807 473.31 617.35 487.601 619.133C530.248 624.454 572.606 634.427 612.231 651.26C620.492 654.77 629.654 657.497 638.09 660.594C640.498 661.477 640.969 663.472 641.628 665.437C641.358 666.561 641.089 667.684 640.819 668.807C620.507 677.093 599.666 681.48 595.803 707.637C592.881 727.42 601.872 739.66 613.041 754.995L612.629 755.886C603.538 776.071 579.386 797.003 560.055 807.38C552.761 810.957 522.465 821.262 520.608 822.69C481.117 853.037 498.291 829.485 474.053 806.186C454.593 787.477 444.862 775.168 433.753 746.763C444.296 744.253 453.231 741.882 463.385 737.458C488.253 726.615 501.929 697.774 488.627 672.693C476.48 649.788 456.823 650.126 434.908 643.345C436.524 632.049 439 624.88 444.602 615.146Z" fill="white"/>
<path d="M587.687 472.682C597.914 475.137 606.534 489.033 612.669 497.495C593.873 507.998 585.385 515.779 576.559 535.175C608.111 545.476 637.852 557.675 660.038 585.961C673.077 602.583 678.182 635.093 661.214 652.879C658.158 656.084 638.408 647.956 633.693 645.625C615.239 636.495 596.726 630.016 577.049 623.656C539.262 613.88 502.85 605.377 463.669 603.608C452.172 601.318 425.325 606.609 427.7 588.179C435.487 527.775 503.107 524.975 551.849 531.273C558.905 505.87 568.381 489.887 587.687 472.682Z" fill="white"/>
</g>
<defs>
<clipPath id="clip0_17_598">
<rect width="672" height="672" rx="336" fill="white"/>
</clipPath>
</defs>
</svg>
