<svg width="80" height="80" viewBox="0 0 80 80" fill="none" xmlns="http://www.w3.org/2000/svg">
<path d="M20.6841 17.5566C23.7852 9.74704 33.2872 8.786 37.1929 16.3711C39.0075 19.8954 38.1009 22.4539 42.4917 25.1846C46.8825 27.9152 47.5946 28.0735 53.3755 32.6982C59.1562 37.3229 63.0786 43.6818 65.5151 47.1504C67.9517 50.619 73.8295 56.4097 77.2095 56.1982L77.1821 56.2266C75.3145 58.1606 73.4869 59.5837 70.7183 59.6221C68.3268 59.6553 65.5151 58.7128 63.7808 56.9785C62.6246 55.8223 62.1867 55.246 60.7661 53.8652C58.8876 54.4886 56.9859 54.8089 55.3003 55.377C58.7742 62.8378 56.755 62.4122 51.853 68.0078L51.8257 67.9785C51.2791 67.3892 50.086 66.1021 49.5161 65.6592C50.486 64.7713 53.2538 62.4175 53.6528 61.3926C54.228 59.9144 52.5014 57.0577 51.853 55.5566C50.8165 55.5693 49.9355 55.4956 48.9058 55.377C49.0937 56.6188 49.7287 58.4867 49.7173 59.6221C49.6814 63.1661 46.1887 65.7385 43.7729 68.1816C43.0638 67.4649 42.2526 66.6029 41.5698 65.8672L42.0005 65.4404C43.303 64.089 44.7001 62.7876 46.0015 61.3408C47.2362 59.968 45.773 56.5498 45.5054 54.9316C45.2194 54.7835 43.9957 54.4461 43.7769 54.3701C34.7513 51.2343 28.8976 42.6743 29.1558 33.1484C29.2189 30.8228 28.3317 27.9132 26.9155 26.0449C24.4314 22.768 20.6685 22.1293 16.9497 21.167C15.7389 20.8567 14.0729 20.306 12.8813 20.1582C15.4424 19.3053 18.1469 18.4344 20.6841 17.5566ZM28.9087 15.7197C27.7723 15.8452 26.9563 16.8727 27.0913 18.0078C27.2265 19.1433 28.2616 19.9507 29.396 19.8057C30.5159 19.6621 31.3116 18.6427 31.1782 17.5215C31.0445 16.4001 30.0313 15.596 28.9087 15.7197Z" fill="#704A2D"/>
<path d="M18.1716 23.1907L18.2066 23.1838C18.3825 23.2612 19.6441 25.0085 19.8528 25.3582C17.4344 26.6594 16.247 27.7796 14.756 30.2234C22.0092 33.4054 19.4505 44.7951 10.5308 43.58C2.78554 41.7741 2.99392 31.6055 9.74686 29.75C10.3505 29.584 11.0486 29.5017 11.6663 29.3938C12.9981 26.7394 15.3114 24.039 18.1716 23.1907Z" fill="#704A2D"/>
</svg>
