<svg width="672" height="672" viewBox="0 0 672 672" fill="none" xmlns="http://www.w3.org/2000/svg">
<rect width="672" height="672" fill="#704A2D"/>
<path d="M194.389 576.679C206.255 575.446 216.89 584.021 218.201 595.879C219.513 607.735 211.008 618.429 199.16 619.819C187.201 621.223 176.385 612.62 175.06 600.651C173.736 588.681 182.411 577.923 194.389 576.679ZM219.927 518.275C236.301 514.574 252.591 524.791 256.389 541.144C260.188 557.496 250.071 573.847 233.741 577.744C217.272 581.675 200.75 571.452 196.918 554.958C193.087 538.466 203.41 522.006 219.927 518.275ZM276.002 88.4884C317.866 85.7377 348.16 94.9771 376.67 127.022C389.806 116.016 400.023 108.878 416.655 103.6C442.487 95.4777 470.492 98.0031 494.454 110.613C521.149 124.754 535.81 146.113 544.283 174.36C566.751 178.047 583.267 183.88 600.606 199.48C621.261 218.179 633.585 244.357 634.834 272.19C636.459 303.757 626.109 328.61 605.284 351.687C610.452 372.416 611.565 389.533 604.405 410.097C595.913 433.937 578.105 453.31 555.062 463.776C527.32 476.663 501.828 474.749 473.874 464.753C455.776 497.429 434.611 512.421 398.206 519.939C362.97 523.504 341.85 515.717 314.539 494.236C262.266 527.809 196.774 517.419 163.516 463.205C96.1774 469.852 30.4774 429.906 37.5197 354.17C39.1975 336.131 47.953 321.465 58.5344 307.065C44.7011 281.058 39.3142 255.813 47.1867 226.681C54.6376 199.431 72.6686 176.288 97.2687 162.4C128.064 144.822 156.578 145.06 189.697 153.913C203.562 116.16 237.564 94.6699 276.002 88.4884Z" fill="white"/>
<path d="M326.73 222.274C326.73 223.144 326.904 223.898 327.251 224.536C327.657 225.174 328.15 225.724 328.73 226.188C329.368 226.594 330.064 226.913 330.818 227.145C331.63 227.377 332.442 227.493 333.253 227.493C334.935 227.493 336.443 227.058 337.777 226.188C339.11 225.318 339.777 224.043 339.777 222.361V188.003H375.875V229.145C375.875 233.61 374.658 237.525 372.222 240.888C369.845 244.194 366.626 246.977 362.567 249.239C358.508 251.443 353.927 253.095 348.824 254.197C343.779 255.299 338.588 255.849 333.253 255.849C329.02 255.849 324.816 255.501 320.641 254.805C316.524 254.11 312.638 253.037 308.985 251.588C305.39 250.138 302.2 248.369 299.417 246.281C296.691 244.135 294.546 241.642 292.98 238.801C291.414 235.901 290.631 232.683 290.631 229.145V188.003H326.73V222.274ZM268.112 188.004C271.997 188.004 275.215 188.757 277.766 190.264C280.318 191.714 282.232 193.599 283.507 195.919C284.841 198.238 285.508 200.674 285.508 203.225C285.508 205.777 284.841 208.27 283.507 210.706C282.174 213.083 280.144 215.026 277.418 216.534C274.751 218.042 271.388 218.796 267.329 218.796C267.329 218.796 267.3 218.796 267.242 218.796V218.883H267.329C272.026 218.883 275.911 219.723 278.984 221.405C282.057 223.087 284.348 225.232 285.856 227.842C287.364 230.451 288.118 233.206 288.118 236.105C288.118 238.251 287.683 240.338 286.813 242.368C286.001 244.397 284.754 246.253 283.073 247.934C281.391 249.558 279.303 250.863 276.81 251.848C274.317 252.776 271.417 253.241 268.112 253.241H199.656V188.004H268.112ZM419.151 188.003C419.905 190.786 420.629 193.57 421.325 196.353C422.078 199.137 422.833 201.92 423.586 204.703C424.34 207.486 425.065 210.27 425.761 213.053C425.761 213.053 425.761 213.083 425.761 213.14H425.848C425.905 213.083 425.934 213.054 425.935 213.053C426.515 210.966 427.095 208.878 427.675 206.791C428.255 204.703 428.835 202.616 429.415 200.528C430.052 198.44 430.662 196.353 431.242 194.265C431.822 192.178 432.401 190.09 432.981 188.003H472.471C469.282 193.802 466.092 199.6 462.903 205.399C459.713 211.198 456.495 216.997 453.248 222.796C450.058 228.594 446.869 234.393 443.68 240.192V253.24H407.582V240.105C405.552 236.626 403.522 233.147 401.493 229.668C399.521 226.188 397.521 222.709 395.492 219.229C393.52 215.75 391.519 212.3 389.49 208.879C387.46 205.399 385.43 201.92 383.401 198.44C381.429 194.961 379.428 191.482 377.399 188.003H419.151ZM233.927 223.536V231.277H246.366C247.931 231.277 249.091 230.871 249.845 230.059C250.657 229.248 251.063 228.32 251.063 227.276C251.063 226.754 250.976 226.29 250.802 225.885C250.628 225.421 250.367 225.015 250.019 224.667C249.729 224.261 249.323 223.971 248.801 223.797C248.337 223.565 247.787 223.449 247.149 223.449H234.014C234.014 223.449 233.985 223.478 233.927 223.536ZM234.014 210.01C233.956 210.01 233.927 210.039 233.927 210.096V217.839H245.931C246.975 217.839 247.845 217.664 248.541 217.316C249.236 216.91 249.758 216.417 250.106 215.838C250.454 215.2 250.627 214.533 250.627 213.838C250.627 212.852 250.28 211.981 249.584 211.227C248.947 210.415 247.989 210.01 246.713 210.01H234.014Z" fill="#704A2D"/>
<path d="M247.497 279.902C258.166 279.902 267.038 281.41 274.113 284.426C281.187 287.441 286.493 291.587 290.031 296.864C293.568 302.141 295.336 308.201 295.336 315.044C295.336 318.755 294.786 322.351 293.684 325.83C292.582 329.251 290.843 332.469 288.465 335.484C286.088 338.442 283.014 341.052 279.245 343.313C275.475 345.517 270.952 347.227 265.675 348.445C260.456 349.721 254.397 350.358 247.497 350.358C242.568 350.358 238.044 350.011 233.927 349.315C229.868 348.677 226.186 347.778 222.88 346.618C219.575 345.4 216.646 343.951 214.094 342.269C211.601 340.588 209.426 338.731 207.571 336.702C205.773 334.614 204.265 332.411 203.047 330.092C201.888 327.772 201.018 325.336 200.438 322.785C199.916 320.234 199.656 317.653 199.656 315.044C199.656 311.622 200.091 308.375 200.96 305.302C201.888 302.228 203.222 299.387 204.961 296.777C206.759 294.168 208.962 291.848 211.572 289.818C214.239 287.731 217.342 285.962 220.879 284.512C224.417 283.005 228.389 281.874 232.796 281.12C237.261 280.308 242.162 279.902 247.497 279.902ZM360.845 282.51C365.948 282.51 370.181 283.438 373.544 285.294C376.908 287.091 379.431 289.44 381.113 292.34C382.794 295.181 383.635 298.196 383.635 301.385C383.635 304.691 382.707 307.909 380.851 311.041C379.053 314.114 376.3 316.638 372.588 318.609C368.935 320.581 364.353 321.566 358.844 321.566H352.408V323.342H372.153L385.548 347.748H344.232C343.13 344.79 341.999 341.833 340.839 338.876C339.738 335.918 338.607 332.961 337.447 330.004C336.721 328.054 335.282 324.089 334.054 320.764V347.748H297.957V282.51H360.845ZM247.583 307.563C245.554 307.563 243.813 307.795 242.364 308.259C240.972 308.664 239.842 309.245 238.972 309.999C238.16 310.695 237.551 311.507 237.145 312.434C236.797 313.304 236.624 314.203 236.624 315.131C236.624 316.348 236.972 317.537 237.667 318.697C238.363 319.857 239.523 320.813 241.146 321.567C242.77 322.321 244.916 322.698 247.583 322.698C249.149 322.698 250.512 322.553 251.671 322.263C252.889 321.974 253.904 321.596 254.715 321.133C255.585 320.611 256.281 320.03 256.803 319.392C257.383 318.697 257.789 318.001 258.021 317.305C258.253 316.552 258.369 315.797 258.369 315.044C258.369 314.174 258.166 313.304 257.76 312.434C257.412 311.564 256.832 310.782 256.02 310.086C255.208 309.332 254.107 308.722 252.715 308.259C251.324 307.795 249.613 307.563 247.583 307.563ZM334.141 306.322H334.054V316.488H344.145C345.305 316.488 346.319 316.499 347.189 316.151C348.117 315.803 348.871 315.339 349.451 314.76C350.03 314.18 350.465 313.542 350.755 312.846C351.045 312.093 351.065 311.805 351.065 311.052C351.065 310.008 350.691 309.268 350.071 308.334C349.45 307.4 347.928 306.974 347.928 306.974C347.908 306.967 345.984 306.235 344.145 306.235H334.228C334.226 306.237 334.197 306.266 334.141 306.322Z" fill="#704A2D"/>
<path d="M268.113 374.412C271.998 374.412 275.216 375.166 277.767 376.674C280.319 378.123 282.233 380.007 283.508 382.327C284.842 384.646 285.509 387.082 285.509 389.634C285.509 392.185 284.842 394.679 283.508 397.114C282.175 399.492 280.145 401.434 277.419 402.942C274.752 404.45 271.389 405.204 267.33 405.204C267.33 405.204 267.301 405.204 267.243 405.204V405.291H267.33C272.027 405.291 275.912 406.132 278.985 407.813C282.058 409.495 284.349 411.64 285.857 414.25C287.365 416.859 288.119 419.614 288.119 422.513C288.119 424.659 287.684 426.747 286.814 428.776C286.002 430.806 284.755 432.661 283.074 434.343C281.392 435.966 279.304 437.272 276.811 438.258C274.318 439.185 271.418 439.649 268.113 439.649H199.657V374.412H268.113ZM325.289 374.412C326.042 377.195 326.768 379.978 327.463 382.761C328.217 385.545 328.971 388.329 329.725 391.112C330.479 393.896 331.204 396.679 331.9 399.463C331.9 399.463 331.9 399.492 331.9 399.55H331.987C332.045 399.492 332.074 399.463 332.074 399.463C332.654 397.375 333.233 395.287 333.813 393.2C334.393 391.112 334.973 389.025 335.553 386.937C336.191 384.85 336.8 382.762 337.379 380.675C337.959 378.587 338.539 376.499 339.119 374.412H378.61C375.42 380.211 372.231 386.009 369.042 391.808C365.852 397.607 362.634 403.406 359.386 409.205C356.197 415.004 353.007 420.802 349.818 426.601V439.649H313.72V426.514C311.691 423.035 309.661 419.556 307.631 416.077C305.66 412.598 303.659 409.118 301.629 405.638C299.658 402.159 297.657 398.709 295.627 395.288C293.598 391.809 291.568 388.329 289.539 384.849C287.567 381.37 285.566 377.891 283.537 374.412H325.289ZM453.316 396.332H415.391V401.29H452.011V413.554H415.391V418.599H453.838V439.649H380.164V374.412H453.316V396.332ZM233.928 409.944V417.685H246.367C247.932 417.685 249.092 417.279 249.846 416.468C250.658 415.656 251.064 414.728 251.064 413.684C251.064 413.163 250.976 412.699 250.802 412.293C250.628 411.829 250.368 411.423 250.02 411.075C249.73 410.669 249.324 410.379 248.802 410.205C248.338 409.973 247.787 409.857 247.149 409.857H234.015C234.015 409.857 233.986 409.886 233.928 409.944ZM234.015 396.419C233.957 396.419 233.928 396.448 233.928 396.506V404.247H245.931C246.975 404.247 247.846 404.073 248.542 403.725C249.237 403.319 249.759 402.826 250.107 402.246C250.455 401.608 250.628 400.941 250.628 400.246C250.628 399.26 250.28 398.39 249.584 397.636C248.947 396.825 247.99 396.419 246.714 396.419H234.015Z" fill="#704A2D"/>
</svg>
