<svg width="672" height="672" viewBox="0 0 672 672" fill="none" xmlns="http://www.w3.org/2000/svg">
<path d="M359.769 168.233C361.335 168.039 362.206 167.817 363.763 168.173C364.987 169.002 366.963 179.211 368.341 182.277L368.549 182.734C370.065 179.308 370.287 173.138 373.501 171.307C374.947 170.483 377.272 171.932 378.684 172.664C376.852 177.448 375.123 183.906 373.644 188.933C378.535 195.809 383.705 202.606 388.498 209.632C391.161 213.536 394.474 219.18 397.335 222.598C398.421 223.005 400.066 223.381 401.225 223.679C413.289 226.783 422.632 231.749 431.5 240.5C456.835 265.5 454.794 311.979 419 332C409.279 337.437 402.02 339.606 396.938 345.287C392.689 349.956 390.388 355.755 390.475 362.096C390.527 365.912 392.062 367.69 394.612 370.121C393.901 373.195 393.456 374.71 391.796 377.397C378.126 373.04 373.771 370.828 362.712 361.961C361.955 362.76 361.133 363.741 360.393 364.577C370.594 373.243 380.135 379.681 393.422 382.619C399.698 384.006 411.157 386.206 412.454 393.679C414.424 405.027 400.45 408.225 392.194 409.61C374.34 412.606 355.916 410.168 340.944 399.469C340.015 400.291 339.196 401.301 338.379 402.242C350.928 414.593 375.031 417.321 391.729 414.389C394.98 421.369 397.747 427.269 403.015 433.095C404.837 435.11 407.282 436.685 408.873 438.796C410.677 441.19 411.409 446.687 414.477 448.139C420.608 451.042 424.145 445.735 428.993 443.062C430.429 442.269 432.062 441.814 433.537 441.37C446.574 459.703 445.236 482.028 435.422 501.376C435.752 501.365 436.082 501.359 436.412 501.356C449.309 501.255 460.006 506.193 459.834 521.026C443.984 521.544 425.649 521.449 409.721 521.284C409.538 504.271 399.758 499.786 384.678 497.795C386.357 494.017 388.394 489.524 389.392 485.559C392.557 472.976 391.536 459.72 384.936 448.439C379.606 439.179 370.813 432.418 360.494 429.647C363.005 431.927 366.064 434.033 368.587 436.288C375.741 442.685 381.256 450.057 383.998 459.356C389.07 476.562 383.015 488.134 375.469 502.605C383.416 502.528 391.515 502.53 398.25 507.337C401.377 509.569 406.785 517.075 404.073 520.905C401.43 521.919 363.448 521.577 358.416 521.417C336.755 520.73 314.496 525.845 298.912 508.04C292.206 508.447 286.948 508.826 280.246 508.479C243.652 504.392 216.713 485.429 202.025 451.374C181.823 404.531 207.603 362.375 209.852 315.384C211.029 290.769 204.718 269.58 185.296 253.325C184.088 252.305 179.88 249.249 180.003 247.776C186.279 245.083 202.137 243.524 209.169 242.926C244.346 239.935 279.567 256.222 289.539 292.338C297.638 321.686 287.75 352.29 279.087 380.427C271.176 406.121 262.043 440.31 285.55 461.196C281.575 432.615 310.246 349.21 320.88 319.876C319.062 317.25 317.26 314.507 315.855 311.639C308.579 296.743 307.545 279.561 312.984 263.9C306.371 249.843 303.014 233.052 298.275 218.445C292.938 216.256 287.386 215.244 281.865 213.672C278.592 212.739 281.1 208.493 282.096 206.557C286.088 207.803 290.878 209.695 294.948 211.108C291.903 205.395 288.183 203.304 284.575 198.21C284.966 197.568 285.393 196.948 285.854 196.354C286.765 195.167 287.252 194.612 288.773 194.42C291.21 195.58 297.53 203.394 299.965 206.027C299.153 200.894 298.357 197.172 298.5 191.95C300.599 191.893 302.812 191.981 304.923 192.029C305.428 198.311 305.926 203.445 306.913 209.674C319.217 215.868 331.18 222.716 342.752 230.19C346.958 227.467 354.305 224.969 359.235 223.086C359.611 212.783 361.176 203.72 361.763 193.798C357.807 189.314 352.673 184.64 348.388 180.069C353.619 173.543 357.193 180.605 362.367 184.915C361.358 180.74 358.819 174.151 358.504 169.924C358.447 169.163 359.223 168.678 359.769 168.233ZM425.967 293.088C428.045 290.135 432.469 277.818 425.497 278.823C413.253 282.474 404.738 288.274 422.77 293.378C423.279 295.327 423.593 296.377 424.325 298.257C421.738 300.273 417.068 303.625 416.396 304.442C415.724 305.26 415.758 305.72 416.175 306.81C418.12 308.922 421.753 305.612 423.523 304.262C425.344 302.874 429.853 299.265 430.359 298.257C430.865 297.249 430.232 295.942 429.357 295.746C428.589 295.574 427.655 296.378 427.221 296.596C427.221 296.131 426.406 295.184 425.967 293.088ZM388.636 281.254C392.758 274.17 386.16 259.997 377.899 260.832C369.274 263.728 370.524 277.8 376.549 282.893C378.484 284.528 381.198 284.973 383.661 284.354C386.125 283.734 387.697 282.867 388.636 281.254ZM432.865 268.686C441.071 263.459 432.334 246.639 425.361 248.247C419.795 249.532 422.388 264.575 427.854 268.185C429.235 269.096 431.211 269.739 432.865 268.686Z" fill="#704A2D"/>
<path d="M460.191 77.2205C470.897 76.517 478.645 78.8791 485.936 87.074C489.295 84.2597 491.908 82.4346 496.162 81.0847C502.768 79.0076 509.929 79.6538 516.057 82.8787C522.884 86.4948 526.633 91.9567 528.8 99.1804C534.546 100.123 538.77 101.615 543.205 105.604C548.487 110.386 551.638 117.081 551.958 124.199C552.373 132.272 549.727 138.627 544.401 144.529C545.723 149.83 546.007 154.208 544.176 159.467C542.004 165.563 537.45 170.518 531.557 173.195C524.463 176.491 517.943 176.001 510.794 173.444C506.166 181.8 500.753 185.635 491.443 187.557C482.432 188.469 477.031 186.477 470.046 180.984C456.678 189.57 439.93 186.913 431.424 173.049C414.204 174.748 397.402 164.532 399.203 145.164C399.632 140.551 401.871 136.8 404.577 133.118C401.039 126.467 399.662 120.011 401.675 112.56C403.581 105.592 408.192 99.6736 414.483 96.1218C422.358 91.6267 429.65 91.688 438.12 93.9519C441.665 84.2971 450.361 78.8014 460.191 77.2205ZM485.223 99.2224C480.047 89.4559 474.401 82.7396 462.183 83.8748C449.744 85.1852 444.627 92.0667 442.916 103.957C435.922 100.136 430.38 97.703 422.184 100.152C416.959 101.684 412.553 105.225 409.933 109.999C407.464 114.633 406.929 120.056 408.445 125.084C409.59 128.825 411.233 130.8 413.511 133.842C409.256 137.723 406.152 141.333 405.789 147.446C405.133 158.479 415.616 166.368 425.868 166.509C429.474 166.568 432.041 166.035 435.474 165.17C437.486 170.726 439.959 174.872 445.605 177.262C455.452 181.432 463.726 178.419 470.673 171.261C474.774 176.291 478.402 180.17 485.422 180.909C486.881 181.05 488.351 181.053 489.81 180.919C500.865 179.07 504.373 173.207 506.965 163.139C512.808 167.011 517.19 169.95 524.793 168.398C529.548 167.449 533.689 164.553 536.213 160.413C539.829 154.493 539.16 148.678 536.207 142.768C541.315 138.449 544.567 134.396 545.168 127.394C545.657 121.891 543.887 116.426 540.265 112.255C536.914 108.469 532.179 106.193 527.129 105.941C525.752 105.875 524.261 105.927 522.879 105.972C522.343 99.8348 520.98 95.1783 516.04 91.0173C512.115 87.7182 507.008 86.1733 501.913 86.7429C496.921 87.2619 492.346 89.7617 489.212 93.6814C487.87 95.3795 486.471 97.4367 485.223 99.2224Z" fill="#704A2D"/>
<path d="M400.804 369.661C405.491 370.215 410.37 370.395 415.133 370.99C429.344 372.763 443.459 376.087 456.664 381.697C459.417 382.866 462.47 383.775 465.281 384.808C466.083 385.102 466.24 385.767 466.46 386.422C466.37 386.796 466.28 387.17 466.191 387.545C459.422 390.306 452.477 391.768 451.19 400.485C450.216 407.079 453.212 411.158 456.934 416.268L456.797 416.565C453.767 423.292 445.719 430.268 439.277 433.727C436.847 434.919 426.751 438.353 426.132 438.829C412.972 448.943 418.695 441.094 410.618 433.329C404.133 427.094 400.89 422.991 397.188 413.525C400.702 412.688 403.679 411.898 407.063 410.424C415.35 406.81 419.907 397.198 415.475 388.84C411.427 381.206 404.876 381.319 397.574 379.059C398.112 375.294 398.937 372.905 400.804 369.661Z" fill="#704A2D"/>
<path d="M448.485 322.182C451.893 323 454.766 327.632 456.81 330.452C450.547 333.952 447.718 336.545 444.777 343.009C455.292 346.442 465.202 350.508 472.595 359.935C476.941 365.474 478.642 376.309 472.987 382.236C471.969 383.305 465.387 380.596 463.816 379.819C457.667 376.776 451.498 374.617 444.94 372.497C432.349 369.239 420.215 366.405 407.158 365.816C403.327 365.053 394.38 366.816 395.172 360.674C397.767 340.543 420.3 339.61 436.543 341.709C438.894 333.243 442.052 327.916 448.485 322.182Z" fill="#704A2D"/>
<path d="M430.618 182.182C437.426 180.644 444.198 184.891 445.777 191.69C447.357 198.489 443.15 205.286 436.361 206.907C429.514 208.541 422.645 204.291 421.052 197.433C419.459 190.576 423.751 183.734 430.618 182.182ZM432.287 188.943C430.299 189.577 428.714 190.268 427.747 192.285C427.145 193.52 427.07 194.948 427.54 196.239C428.657 199.359 431.497 200.239 434.512 200.172C442.911 197.487 440.093 188.527 432.287 188.943Z" fill="#704A2D"/>
<path d="M468.123 392.136C474.17 391.469 474.518 400.328 473.767 404.455C472.792 409.82 468.828 415.457 462.684 414.287C459.36 412.213 456.342 409.094 455.626 405.11C455.164 402.466 455.792 399.749 457.366 397.577C460.123 393.697 463.852 392.971 468.123 392.136Z" fill="#704A2D"/>
<path d="M421.751 205.635C426.685 205.123 431.106 208.689 431.652 213.619C432.197 218.548 428.662 222.994 423.736 223.572C418.764 224.156 414.266 220.579 413.715 215.603C413.165 210.626 416.771 206.153 421.751 205.635ZM424.658 213.569C424.089 212.492 422.76 212.072 421.675 212.626C420.96 212.99 420.496 213.714 420.462 214.516C420.429 215.319 420.83 216.077 421.512 216.502C422.195 216.926 423.052 216.95 423.757 216.564C424.825 215.98 425.227 214.646 424.658 213.569Z" fill="#704A2D"/>
<path d="M414.783 566.688C416.398 566.688 417.737 567.001 418.797 567.628C419.858 568.231 420.654 569.014 421.184 569.979C421.739 570.943 422.015 571.956 422.015 573.017C422.015 574.077 421.739 575.114 421.184 576.127C420.63 577.115 419.785 577.923 418.652 578.55C417.543 579.177 416.145 579.49 414.458 579.49C414.458 579.49 414.445 579.49 414.421 579.49V579.526H414.458C416.41 579.526 418.025 579.876 419.303 580.575C420.581 581.274 421.534 582.166 422.161 583.251C422.787 584.336 423.1 585.481 423.1 586.687C423.1 587.579 422.92 588.447 422.558 589.291C422.221 590.135 421.702 590.906 421.003 591.605C420.304 592.281 419.436 592.823 418.399 593.232C417.362 593.618 416.157 593.812 414.783 593.812H386.322V566.688H414.783ZM438.554 566.688C438.868 567.846 439.169 569.003 439.458 570.16C439.772 571.317 440.086 572.475 440.399 573.632C440.712 574.789 441.014 575.946 441.303 577.104V577.14H441.339C441.363 577.116 441.375 577.104 441.375 577.104C441.617 576.236 441.857 575.367 442.098 574.499C442.339 573.631 442.581 572.763 442.822 571.896C443.087 571.028 443.34 570.16 443.582 569.292C443.823 568.424 444.063 567.556 444.304 566.688H460.723C459.397 569.099 458.072 571.51 456.746 573.921C455.42 576.332 454.081 578.742 452.731 581.153C451.405 583.564 450.078 585.976 448.752 588.387V593.812H433.745V588.351C432.901 586.904 432.057 585.457 431.213 584.011C430.394 582.564 429.561 581.117 428.717 579.671C427.898 578.224 427.066 576.79 426.222 575.367C425.378 573.921 424.535 572.474 423.691 571.027C422.871 569.581 422.039 568.135 421.196 566.688H438.554ZM491.784 575.802H476.016V577.862H491.241V582.962H476.016V585.06H492V593.812H461.37V566.688H491.784V575.802ZM400.57 581.461V584.68H405.742C406.392 584.68 406.875 584.511 407.188 584.174C407.525 583.836 407.695 583.45 407.695 583.017C407.695 582.8 407.659 582.606 407.586 582.438C407.514 582.245 407.405 582.076 407.26 581.932C407.14 581.763 406.971 581.642 406.754 581.569C406.562 581.473 406.332 581.425 406.067 581.425H400.606C400.605 581.425 400.593 581.437 400.57 581.461ZM400.606 575.838C400.582 575.838 400.57 575.85 400.57 575.874V579.093H405.561C405.995 579.093 406.357 579.02 406.646 578.875C406.935 578.706 407.152 578.502 407.296 578.261C407.441 577.996 407.513 577.718 407.513 577.429C407.513 577.019 407.369 576.657 407.08 576.344C406.814 576.006 406.417 575.838 405.886 575.838H400.606Z" fill="#D9D9D9"/>
<path d="M319.712 565.604C324.148 565.604 327.837 566.231 330.779 567.484C333.72 568.738 335.926 570.461 337.397 572.655C338.868 574.849 339.603 577.369 339.603 580.214C339.603 581.757 339.374 583.252 338.916 584.698C338.457 586.121 337.734 587.459 336.746 588.713C335.757 589.942 334.48 591.028 332.913 591.968C331.346 592.884 329.465 593.594 327.271 594.101C325.101 594.631 322.581 594.896 319.712 594.896C317.663 594.896 315.783 594.752 314.071 594.463C312.383 594.198 310.852 593.824 309.478 593.342C308.104 592.835 306.886 592.232 305.825 591.533C304.788 590.834 303.884 590.062 303.113 589.219C302.365 588.351 301.738 587.435 301.232 586.471C300.75 585.506 300.388 584.493 300.147 583.433C299.93 582.372 299.822 581.299 299.822 580.214C299.822 578.791 300.002 577.441 300.364 576.163C300.75 574.885 301.305 573.704 302.028 572.619C302.775 571.534 303.691 570.57 304.776 569.727C305.885 568.859 307.175 568.123 308.646 567.521C310.117 566.894 311.768 566.423 313.6 566.109C315.457 565.772 317.494 565.604 319.712 565.604ZM366.838 566.688C368.96 566.688 370.72 567.074 372.119 567.846C373.517 568.593 374.566 569.569 375.265 570.774C375.964 571.956 376.314 573.21 376.314 574.536C376.314 575.91 375.928 577.248 375.157 578.55C374.409 579.828 373.264 580.877 371.721 581.696C370.202 582.516 368.297 582.926 366.006 582.926H363.331V583.664H371.54L377.109 593.812H359.931C359.473 592.582 359.003 591.352 358.521 590.122C358.063 588.893 357.592 587.663 357.11 586.434C356.808 585.623 356.21 583.974 355.7 582.592V593.812H340.692V566.688H366.838ZM319.749 577.104C318.905 577.104 318.181 577.201 317.579 577.394C317 577.562 316.53 577.803 316.168 578.116C315.831 578.406 315.577 578.743 315.409 579.129C315.264 579.491 315.192 579.864 315.192 580.25C315.192 580.756 315.336 581.25 315.625 581.732C315.915 582.214 316.397 582.612 317.072 582.926C317.747 583.239 318.639 583.396 319.749 583.396C320.399 583.396 320.966 583.336 321.448 583.216C321.954 583.095 322.376 582.938 322.713 582.745C323.075 582.528 323.365 582.288 323.582 582.022C323.823 581.733 323.992 581.444 324.088 581.154C324.185 580.841 324.233 580.527 324.233 580.214C324.233 579.852 324.149 579.491 323.98 579.129C323.835 578.767 323.594 578.442 323.256 578.152C322.919 577.839 322.461 577.586 321.882 577.394C321.304 577.201 320.592 577.104 319.749 577.104ZM355.736 576.588H355.7V580.814H359.895C360.377 580.814 360.799 580.819 361.161 580.675C361.546 580.53 361.86 580.337 362.101 580.096C362.342 579.855 362.523 579.59 362.643 579.301C362.764 578.987 362.772 578.868 362.772 578.555C362.772 578.121 362.617 577.812 362.359 577.424C362.103 577.04 361.481 576.863 361.468 576.859C361.468 576.859 360.664 576.552 359.895 576.552H355.772L355.736 576.588Z" fill="#D9D9D9"/>
<path d="M232.833 580.937C232.833 581.298 232.906 581.612 233.05 581.877C233.219 582.142 233.424 582.372 233.665 582.564C233.93 582.733 234.219 582.865 234.533 582.962C234.87 583.058 235.208 583.106 235.545 583.106C236.245 583.106 236.872 582.926 237.426 582.564C237.981 582.203 238.258 581.672 238.258 580.973V566.688H253.266V583.794C253.266 585.65 252.76 587.278 251.748 588.676C250.759 590.05 249.421 591.207 247.733 592.147C246.045 593.064 244.141 593.751 242.019 594.209C239.922 594.667 237.763 594.896 235.545 594.896C233.785 594.896 232.037 594.751 230.301 594.462C228.59 594.173 226.974 593.727 225.456 593.124C223.961 592.521 222.635 591.786 221.478 590.918C220.345 590.026 219.452 588.989 218.801 587.808C218.15 586.602 217.825 585.264 217.825 583.794V566.688H232.833V580.937ZM208.461 566.688C210.077 566.688 211.415 567.001 212.476 567.628C213.537 568.231 214.332 569.014 214.863 569.979C215.417 570.943 215.695 571.956 215.695 573.017C215.695 574.077 215.417 575.114 214.863 576.127C214.308 577.115 213.465 577.923 212.332 578.55C211.223 579.177 209.824 579.49 208.136 579.49H208.1V579.526H208.136C210.089 579.526 211.704 579.876 212.982 580.575C214.26 581.274 215.213 582.166 215.839 583.251C216.466 584.336 216.78 585.481 216.78 586.687C216.78 587.579 216.598 588.447 216.237 589.291C215.899 590.135 215.381 590.906 214.682 591.605C213.983 592.28 213.115 592.823 212.079 593.232C211.042 593.618 209.836 593.812 208.461 593.812H180V566.688H208.461ZM271.258 566.688C271.572 567.846 271.873 569.003 272.163 570.16C272.476 571.317 272.79 572.475 273.103 573.632C273.416 574.789 273.718 575.946 274.007 577.104V577.14H274.043C274.068 577.116 274.08 577.104 274.08 577.104C274.321 576.236 274.561 575.367 274.802 574.499C275.043 573.631 275.285 572.763 275.526 571.896C275.791 571.028 276.045 570.16 276.286 569.292C276.527 568.424 276.767 567.556 277.008 566.688H293.427C292.101 569.099 290.776 571.51 289.45 573.921C288.124 576.332 286.785 578.742 285.435 581.153C284.109 583.564 282.783 585.976 281.457 588.387V593.812H266.449V588.351C265.605 586.904 264.761 585.457 263.917 584.011C263.098 582.564 262.265 581.117 261.421 579.671C260.602 578.224 259.77 576.79 258.926 575.367C258.082 573.921 257.239 572.474 256.395 571.027C255.575 569.581 254.744 568.135 253.9 566.688H271.258ZM194.25 581.461V584.68H199.42C200.071 584.68 200.554 584.511 200.868 584.174C201.205 583.836 201.373 583.45 201.374 583.017C201.374 582.8 201.337 582.606 201.265 582.438C201.193 582.245 201.084 582.076 200.94 581.932C200.819 581.763 200.65 581.642 200.433 581.569C200.24 581.473 200.011 581.425 199.747 581.425H194.286C194.286 581.425 194.273 581.437 194.25 581.461ZM194.286 575.838C194.262 575.838 194.25 575.85 194.25 575.874V579.093H199.24C199.674 579.093 200.035 579.02 200.325 578.875C200.614 578.706 200.831 578.502 200.976 578.261C201.121 577.996 201.193 577.718 201.193 577.429C201.193 577.019 201.048 576.657 200.759 576.344C200.494 576.006 200.095 575.838 199.565 575.838H194.286Z" fill="#704A2D"/>
<path d="M456.684 109.557C459.785 101.747 469.287 100.786 473.193 108.371C475.007 111.895 474.101 114.454 478.492 117.185C482.883 119.915 483.595 120.074 489.375 124.698C495.156 129.323 499.079 135.682 501.515 139.15C503.952 142.619 509.83 148.41 513.209 148.198L513.182 148.227C511.315 150.161 509.487 151.584 506.718 151.622C504.327 151.655 501.515 150.713 499.781 148.979C498.625 147.822 498.187 147.246 496.766 145.865C494.888 146.489 492.986 146.809 491.3 147.377C494.774 154.838 492.755 154.412 487.853 160.008L487.826 159.979C487.279 159.389 486.086 158.102 485.516 157.659C486.486 156.771 489.254 154.418 489.653 153.393C490.228 151.914 488.501 149.058 487.853 147.557C486.816 147.569 485.935 147.496 484.906 147.377C485.094 148.619 485.729 150.487 485.717 151.622C485.681 155.166 482.189 157.739 479.773 160.182C479.064 159.465 478.253 158.603 477.57 157.867L478 157.44C479.303 156.089 480.7 154.788 482.001 153.341C483.236 151.968 481.773 148.55 481.505 146.932C481.219 146.783 479.996 146.446 479.777 146.37C470.751 143.234 464.898 134.674 465.156 125.148C465.219 122.823 464.332 119.913 462.916 118.045C460.431 114.768 456.668 114.129 452.95 113.167C451.739 112.857 450.073 112.306 448.881 112.158C451.442 111.305 454.147 110.434 456.684 109.557ZM464.909 107.72C463.772 107.845 462.956 108.873 463.091 110.008C463.226 111.143 464.262 111.951 465.396 111.806C466.516 111.662 467.312 110.643 467.178 109.521C467.044 108.4 466.031 107.596 464.909 107.72Z" fill="#704A2D"/>
<path d="M454.172 115.191L454.207 115.184C454.383 115.261 455.644 117.009 455.853 117.358C453.434 118.659 452.247 119.78 450.756 122.223C458.009 125.405 455.45 136.795 446.531 135.58C438.786 133.774 438.994 123.606 445.747 121.75C446.351 121.584 447.049 121.502 447.666 121.394C448.998 118.739 451.311 116.039 454.172 115.191Z" fill="#704A2D"/>
</svg>
