<svg width="672" height="672" viewBox="0 0 672 672" fill="none" xmlns="http://www.w3.org/2000/svg">
<path d="M333.533 242.222C335.1 242.028 335.97 241.805 337.527 242.162C338.752 242.991 340.727 253.2 342.105 256.266L342.313 256.723C343.829 253.297 344.051 247.127 347.266 245.296C348.712 244.472 351.036 245.921 352.448 246.653C350.617 251.437 348.887 257.895 347.408 262.922C352.3 269.798 357.47 276.595 362.263 283.621C364.926 287.525 368.238 293.169 371.099 296.587C372.185 296.994 373.83 297.37 374.989 297.668C387.054 300.772 396.396 305.738 405.265 314.489C430.6 339.489 428.559 385.968 392.765 405.989C383.044 411.426 375.784 413.595 370.702 419.276C366.454 423.945 364.152 429.744 364.239 436.085C364.292 439.901 365.826 441.679 368.377 444.11C367.666 447.184 367.22 448.698 365.56 451.386C351.891 447.029 347.535 444.817 336.476 435.95C335.719 436.749 334.897 437.729 334.157 438.566C344.359 447.232 353.899 453.67 367.186 456.608C373.463 457.995 384.922 460.195 386.219 467.668C388.189 479.016 374.215 482.214 365.959 483.599C348.105 486.595 329.68 484.157 314.709 473.458C313.78 474.28 312.961 475.289 312.143 476.231C324.692 488.582 348.796 491.31 365.493 488.378C368.745 495.358 371.512 501.258 376.779 507.084C378.601 509.099 381.047 510.674 382.638 512.785C384.442 515.179 385.173 520.675 388.241 522.128C394.373 525.031 397.909 519.724 402.758 517.05C404.194 516.258 405.826 515.803 407.302 515.359C420.338 533.692 419.001 556.017 409.186 575.365C409.516 575.354 409.847 575.348 410.177 575.345C423.073 575.244 433.771 580.182 433.599 595.015C417.748 595.532 399.414 595.438 383.485 595.273C383.302 578.259 373.523 573.775 358.442 571.784C360.122 568.006 362.158 563.512 363.156 559.547C366.321 546.965 365.301 533.709 358.7 522.428C353.371 513.168 344.578 506.407 334.259 503.636C336.77 505.916 339.829 508.021 342.351 510.277C349.506 516.674 355.021 524.046 357.763 533.345C362.835 550.55 356.779 562.122 349.233 576.594C357.181 576.517 365.279 576.518 372.015 581.326C375.141 583.558 380.55 591.064 377.838 594.894C375.195 595.908 337.212 595.566 332.181 595.406C310.52 594.719 288.26 599.834 272.677 582.029C265.97 582.436 260.713 582.814 254.011 582.468C217.417 578.381 190.477 559.418 175.79 525.363C155.588 478.519 181.367 436.364 183.616 389.373C184.794 364.758 178.483 343.568 159.06 327.314C157.853 326.294 153.644 323.238 153.767 321.765C160.043 319.072 175.901 317.513 182.933 316.915C218.11 313.924 253.331 330.211 263.304 366.327C271.402 395.675 261.514 426.279 252.851 454.416C244.941 480.11 235.808 514.298 259.314 535.185C255.34 506.604 284.01 423.199 294.644 393.865C292.827 391.238 291.024 388.496 289.62 385.628C282.344 370.732 281.31 353.55 286.749 337.889C280.136 323.832 276.778 307.041 272.04 292.434C266.702 290.245 261.15 289.233 255.63 287.661C252.357 286.728 254.865 282.482 255.86 280.546C259.852 281.792 264.643 283.684 268.713 285.097C265.668 279.384 261.948 277.293 258.34 272.199C258.731 271.557 259.158 270.937 259.619 270.342C260.53 269.156 261.016 268.601 262.538 268.409C264.975 269.568 271.295 277.383 273.729 280.016C272.918 274.883 272.122 271.161 272.265 265.939C274.364 265.882 276.576 265.97 278.687 266.018C279.192 272.3 279.691 277.434 280.678 283.663C292.982 289.857 304.945 296.705 316.516 304.179C320.723 301.456 328.07 298.958 333 297.075C333.375 286.772 334.94 277.709 335.527 267.787C331.572 263.303 326.438 258.629 322.152 254.058C327.383 247.532 330.958 254.594 336.132 258.904C335.122 254.729 332.583 248.14 332.268 243.913C332.212 243.152 332.987 242.667 333.533 242.222ZM399.731 367.077C401.809 364.124 406.233 351.807 399.263 352.812C387.018 356.463 378.502 362.263 396.534 367.367C397.044 369.316 397.359 370.365 398.091 372.245C395.504 374.261 390.835 377.612 390.161 378.43C389.489 379.248 389.524 379.708 389.94 380.797C391.886 382.91 395.519 379.599 397.289 378.25C399.11 376.862 403.619 373.254 404.125 372.246C404.63 371.238 403.998 369.931 403.123 369.734C402.355 369.562 401.421 370.366 400.986 370.584C400.986 370.119 400.17 369.172 399.731 367.077ZM362.4 355.242C366.522 348.158 359.924 333.986 351.664 334.821C343.038 337.717 344.289 351.789 350.313 356.881C352.248 358.517 354.963 358.961 357.427 358.341C359.89 357.722 361.461 356.855 362.4 355.242ZM406.631 342.674C414.835 337.448 406.1 320.629 399.127 322.236C393.56 323.52 396.153 338.564 401.619 342.173C403 343.085 404.976 343.728 406.631 342.674Z" fill="#704A2D"/>
<path d="M374.097 443.595C378.785 444.149 383.664 444.33 388.426 444.924C402.638 446.698 416.753 450.021 429.957 455.631C432.71 456.801 435.763 457.71 438.575 458.742C439.377 459.036 439.534 459.701 439.753 460.356C439.664 460.73 439.574 461.105 439.484 461.479C432.715 464.24 425.77 465.703 424.483 474.42C423.509 481.013 426.505 485.092 430.227 490.203L430.09 490.5C427.06 497.227 419.012 504.203 412.57 507.661C410.14 508.853 400.044 512.288 399.425 512.763C386.265 522.877 391.988 515.028 383.912 507.263C377.427 501.028 374.184 496.926 370.482 487.459C373.995 486.623 376.973 485.833 380.356 484.358C388.643 480.745 393.201 471.133 388.768 462.774C384.72 455.14 378.17 455.253 370.867 452.993C371.405 449.229 372.23 446.839 374.097 443.595Z" fill="#D9D9D9"/>
<path d="M421.779 396.116C425.186 396.935 428.059 401.566 430.103 404.386C423.84 407.886 421.011 410.479 418.07 416.943C428.585 420.377 438.495 424.442 445.889 433.869C450.234 439.409 451.935 450.243 446.28 456.171C445.262 457.239 438.681 454.53 437.109 453.753C430.96 450.711 424.791 448.551 418.234 446.432C405.642 443.173 393.508 440.34 380.451 439.75C376.62 438.987 367.673 440.75 368.465 434.608C371.06 414.477 393.593 413.544 409.836 415.643C412.187 407.177 415.345 401.85 421.779 396.116Z" fill="#704A2D"/>
<path d="M441.416 466.07C447.463 465.404 447.812 474.263 447.061 478.39C446.085 483.754 442.122 489.392 435.977 488.221C432.654 486.148 429.635 483.028 428.919 479.044C428.457 476.401 429.085 473.683 430.66 471.511C433.416 467.631 437.145 466.905 441.416 466.07Z" fill="#704A2D"/>
<path d="M395.045 279.571C399.978 279.058 404.4 282.623 404.945 287.553C405.491 292.482 401.955 296.928 397.029 297.506C392.057 298.09 387.56 294.514 387.009 289.537C386.458 284.561 390.065 280.088 395.045 279.571ZM405.663 255.287C412.471 253.749 419.243 257.998 420.822 264.796C422.402 271.595 418.195 278.393 411.406 280.013C404.559 281.648 397.69 277.397 396.097 270.539C394.504 263.683 398.796 256.839 405.663 255.287ZM428.977 76.598C446.382 75.4544 458.978 79.2956 470.831 92.6185C476.292 88.0431 480.54 85.0758 487.455 82.8812C498.195 79.5044 509.838 80.5545 519.801 85.7972C530.9 91.6761 536.996 100.556 540.519 112.3C549.86 113.833 556.727 116.259 563.936 122.745C572.523 130.519 577.647 141.403 578.166 152.974C578.842 166.099 574.538 176.431 565.88 186.026C568.029 194.645 568.491 201.761 565.515 210.311C561.984 220.223 554.581 228.278 545 232.629C533.466 237.987 522.867 237.191 511.245 233.035C503.721 246.62 494.921 252.854 479.785 255.979C465.135 257.461 456.354 254.224 444.999 245.293C423.266 259.251 396.037 254.931 382.209 232.391C354.212 235.155 326.897 218.547 329.824 187.059C330.522 179.559 334.162 173.461 338.562 167.474C332.81 156.661 330.571 146.165 333.844 134.053C336.942 122.724 344.438 113.102 354.666 107.328C367.469 100.02 379.325 100.119 393.095 103.799C398.859 88.1028 412.996 79.1681 428.977 76.598Z" fill="#D9D9D9"/>
<path d="M450.068 132.222C450.068 132.584 450.14 132.897 450.285 133.162C450.454 133.428 450.658 133.657 450.899 133.85C451.164 134.019 451.454 134.151 451.767 134.247C452.105 134.344 452.443 134.392 452.78 134.392C453.479 134.392 454.106 134.212 454.661 133.85C455.215 133.488 455.493 132.957 455.493 132.258V117.974H470.501V135.079C470.501 136.936 469.995 138.563 468.982 139.961C467.994 141.336 466.655 142.493 464.968 143.433C463.28 144.349 461.375 145.036 459.254 145.495C457.156 145.953 454.998 146.182 452.78 146.182C451.02 146.182 449.272 146.037 447.536 145.747C445.824 145.458 444.209 145.012 442.69 144.41C441.196 143.807 439.87 143.071 438.713 142.203C437.579 141.311 436.687 140.275 436.036 139.093C435.385 137.888 435.059 136.55 435.059 135.079V117.974H450.068V132.222ZM425.696 117.974C427.311 117.974 428.65 118.287 429.711 118.913C430.771 119.516 431.567 120.3 432.097 121.264C432.652 122.228 432.929 123.241 432.929 124.302C432.929 125.363 432.652 126.4 432.097 127.412C431.543 128.401 430.699 129.209 429.566 129.835C428.457 130.462 427.059 130.776 425.371 130.776H425.335V130.812H425.371C427.324 130.812 428.939 131.162 430.217 131.861C431.494 132.56 432.447 133.452 433.074 134.536C433.701 135.621 434.014 136.767 434.014 137.972C434.014 138.864 433.833 139.733 433.471 140.577C433.134 141.42 432.616 142.192 431.917 142.891C431.218 143.566 430.35 144.108 429.313 144.518C428.277 144.904 427.07 145.097 425.696 145.097H397.235V117.974H425.696ZM488.493 117.974C488.806 119.131 489.108 120.289 489.397 121.446C489.711 122.603 490.024 123.76 490.338 124.917C490.651 126.075 490.953 127.232 491.242 128.389V128.425H491.278C491.302 128.401 491.314 128.389 491.314 128.389C491.555 127.521 491.796 126.652 492.037 125.785C492.278 124.917 492.519 124.049 492.76 123.181C493.026 122.313 493.279 121.445 493.52 120.578C493.761 119.71 494.002 118.842 494.243 117.974H510.662C509.336 120.385 508.009 122.796 506.683 125.206C505.357 127.617 504.02 130.028 502.67 132.439C501.344 134.85 500.017 137.261 498.691 139.672V145.097H483.683V139.636C482.84 138.19 481.996 136.743 481.152 135.296C480.332 133.85 479.5 132.403 478.656 130.956C477.836 129.51 477.005 128.075 476.161 126.653C475.317 125.206 474.473 123.759 473.63 122.313C472.81 120.867 471.978 119.42 471.135 117.974H488.493ZM411.484 132.746V135.965H416.655C417.306 135.965 417.789 135.797 418.102 135.459C418.44 135.122 418.608 134.736 418.608 134.302C418.608 134.085 418.572 133.892 418.5 133.723C418.427 133.53 418.319 133.362 418.175 133.217C418.054 133.048 417.885 132.927 417.668 132.855C417.475 132.759 417.246 132.71 416.981 132.71H411.52C411.52 132.71 411.508 132.723 411.484 132.746ZM411.52 127.123C411.496 127.123 411.484 127.135 411.484 127.16V130.378H416.474C416.908 130.378 417.27 130.305 417.559 130.161C417.849 129.992 418.066 129.787 418.211 129.546C418.355 129.281 418.427 129.004 418.427 128.714C418.427 128.304 418.283 127.943 417.994 127.629C417.729 127.292 417.33 127.123 416.8 127.123H411.52Z" fill="#704A2D"/>
<path d="M417.126 156.182C421.562 156.182 425.251 156.809 428.192 158.063C431.133 159.316 433.339 161.04 434.809 163.234C436.28 165.428 437.015 167.947 437.015 170.792C437.015 172.335 436.787 173.83 436.329 175.277C435.871 176.699 435.147 178.038 434.159 179.291C433.17 180.521 431.892 181.606 430.325 182.546C428.758 183.462 426.877 184.173 424.683 184.679C422.514 185.209 419.995 185.475 417.126 185.475C415.077 185.475 413.196 185.331 411.484 185.041C409.797 184.776 408.265 184.402 406.891 183.92C405.517 183.414 404.299 182.811 403.238 182.112C402.201 181.413 401.298 180.641 400.526 179.797C399.779 178.929 399.152 178.014 398.645 177.049C398.163 176.085 397.801 175.072 397.56 174.011C397.343 172.95 397.235 171.877 397.235 170.792C397.235 169.37 397.415 168.019 397.777 166.742C398.163 165.464 398.718 164.282 399.441 163.198C400.188 162.113 401.105 161.149 402.189 160.305C403.298 159.437 404.589 158.702 406.059 158.099C407.53 157.472 409.181 157.001 411.013 156.688C412.87 156.35 414.908 156.182 417.126 156.182ZM464.252 157.267C466.373 157.267 468.134 157.653 469.532 158.424C470.93 159.172 471.979 160.148 472.678 161.353C473.378 162.534 473.727 163.789 473.727 165.115C473.727 166.489 473.341 167.827 472.57 169.128C471.823 170.406 470.677 171.455 469.135 172.275C467.616 173.095 465.71 173.504 463.42 173.504H460.744V174.243H468.953L474.522 184.39H457.344C456.886 183.16 456.417 181.93 455.934 180.701C455.476 179.471 455.005 178.242 454.523 177.012C454.221 176.201 453.623 174.552 453.113 173.17V184.39H438.105V157.267H464.252ZM417.162 167.682C416.318 167.682 415.595 167.779 414.992 167.972C414.413 168.141 413.942 168.381 413.581 168.695C413.243 168.984 412.991 169.322 412.822 169.707C412.677 170.069 412.605 170.443 412.605 170.828C412.605 171.335 412.75 171.829 413.039 172.311C413.328 172.793 413.81 173.191 414.485 173.504C415.16 173.818 416.053 173.975 417.162 173.975C417.813 173.975 418.379 173.915 418.861 173.794C419.367 173.674 419.789 173.516 420.127 173.324C420.488 173.107 420.778 172.866 420.995 172.601C421.236 172.312 421.405 172.022 421.502 171.733C421.598 171.419 421.646 171.106 421.646 170.792C421.646 170.431 421.561 170.069 421.392 169.707C421.248 169.346 421.007 169.02 420.67 168.731C420.332 168.418 419.874 168.165 419.296 167.972C418.717 167.779 418.006 167.682 417.162 167.682ZM453.149 167.166H453.113V171.393H457.308C457.79 171.393 458.212 171.398 458.574 171.253C458.96 171.109 459.273 170.915 459.514 170.674C459.755 170.433 459.936 170.168 460.056 169.879C460.177 169.566 460.185 169.446 460.185 169.133C460.185 168.699 460.03 168.391 459.772 168.002C459.517 167.618 458.894 167.441 458.882 167.438C458.882 167.438 458.077 167.13 457.308 167.13H453.185L453.149 167.166Z" fill="#704A2D"/>
<path d="M425.697 195.474C427.312 195.474 428.65 195.788 429.711 196.414C430.771 197.017 431.568 197.801 432.098 198.765C432.653 199.729 432.929 200.742 432.929 201.803C432.929 202.864 432.653 203.901 432.098 204.913C431.544 205.902 430.699 206.709 429.566 207.336C428.457 207.963 427.059 208.277 425.372 208.277C425.372 208.277 425.359 208.277 425.335 208.277V208.313H425.372C427.324 208.313 428.94 208.663 430.218 209.362C431.495 210.061 432.447 210.953 433.074 212.037C433.701 213.122 434.014 214.268 434.014 215.473C434.014 216.365 433.834 217.234 433.472 218.078C433.135 218.921 432.616 219.693 431.917 220.392C431.218 221.067 430.35 221.609 429.313 222.019C428.277 222.405 427.071 222.598 425.697 222.598H397.235V195.474H425.697ZM449.469 195.474C449.782 196.631 450.083 197.789 450.373 198.947C450.686 200.104 451 201.261 451.313 202.418C451.627 203.576 451.928 204.733 452.218 205.89V205.926H452.254C452.278 205.902 452.29 205.89 452.29 205.89C452.531 205.022 452.771 204.153 453.012 203.286C453.254 202.418 453.495 201.55 453.736 200.682C454.001 199.814 454.255 198.946 454.496 198.078C454.737 197.211 454.977 196.342 455.219 195.474H471.637C470.311 197.885 468.986 200.296 467.66 202.707C466.334 205.118 464.995 207.529 463.645 209.94C462.319 212.351 460.993 214.762 459.667 217.173V222.598H444.659V217.137C443.815 215.691 442.971 214.244 442.128 212.797C441.308 211.351 440.475 209.904 439.632 208.457C438.812 207.011 437.98 205.576 437.136 204.154C436.293 202.707 435.449 201.26 434.605 199.814C433.786 198.367 432.954 196.92 432.11 195.474H449.469ZM502.698 204.588H486.93V206.649H502.155V211.748H486.93V213.846H502.915V222.598H472.284V195.474H502.698V204.588ZM411.484 210.247V213.466H416.656C417.307 213.466 417.789 213.298 418.102 212.96C418.44 212.623 418.608 212.237 418.608 211.803C418.608 211.586 418.572 211.393 418.5 211.224C418.427 211.031 418.319 210.863 418.175 210.718C418.054 210.549 417.886 210.428 417.669 210.356C417.476 210.259 417.246 210.211 416.981 210.211H411.52C411.52 210.211 411.508 210.223 411.484 210.247ZM411.52 204.624C411.496 204.624 411.484 204.636 411.484 204.661V207.879H416.475C416.909 207.879 417.271 207.806 417.56 207.661C417.849 207.493 418.066 207.288 418.211 207.047C418.355 206.782 418.427 206.505 418.427 206.215C418.427 205.805 418.283 205.444 417.994 205.13C417.729 204.793 417.331 204.624 416.801 204.624H411.52Z" fill="#704A2D"/>
</svg>
