<svg width="672" height="672" viewBox="0 0 672 672" fill="none" xmlns="http://www.w3.org/2000/svg">
<path d="M455.807 120.11C459.564 120.687 465.603 117.542 470.048 113.645C471.979 117.68 475.722 121.662 471.005 127.882L469.357 130.773L462.927 129.77C462.927 129.77 459.892 129.859 455.807 120.11ZM457.316 103.278L459.34 106.491C460.079 106.222 460.881 105.996 461.745 105.819C466.448 104.859 469.283 108.974 470.056 110.69C464.141 116.965 456.248 118.548 453.49 117.925C452.188 113.303 453.594 109.498 457.503 107.325L455.625 104.343L457.316 103.278Z" fill="#704A2D"/>
<path d="M455.806 150.111C459.562 150.688 465.601 147.544 470.046 143.647C471.978 147.681 475.721 151.662 471.005 157.883L469.356 160.774L462.925 159.771C462.887 159.772 459.865 159.799 455.806 150.111ZM457.315 133.278L459.339 136.492C460.078 136.222 460.879 135.997 461.744 135.82C466.447 134.86 469.282 138.975 470.054 140.691C464.139 146.967 456.246 148.55 453.489 147.927C452.187 143.305 453.593 139.499 457.502 137.326L455.624 134.344L457.315 133.278Z" fill="#704A2D"/>
<path d="M480.806 120.111C484.562 120.688 490.601 117.544 495.046 113.647C496.978 117.681 500.721 121.662 496.005 127.883L494.356 130.774L487.925 129.771C487.887 129.772 484.865 129.799 480.806 120.111ZM482.315 103.278L484.339 106.492C485.078 106.222 485.879 105.997 486.744 105.82C491.447 104.86 494.282 108.975 495.054 110.691C489.139 116.967 481.246 118.55 478.489 117.927C477.187 113.305 478.593 109.499 482.502 107.326L480.624 104.344L482.315 103.278Z" fill="#704A2D"/>
<path d="M480.807 150.11C484.563 150.688 490.602 147.543 495.047 143.646C496.979 147.68 500.721 151.662 496.005 157.883L494.356 160.774L487.926 159.771C487.908 159.771 484.879 159.831 480.807 150.11ZM482.316 133.278L484.34 136.491C485.078 136.222 485.88 135.996 486.744 135.82C491.447 134.859 494.283 138.975 495.055 140.69C489.14 146.966 481.247 148.549 478.489 147.926C477.188 143.304 478.594 139.498 482.503 137.325L480.625 134.343L482.316 133.278Z" fill="#704A2D"/>
<path d="M359.768 168.233C361.335 168.039 362.205 167.817 363.762 168.173C364.987 169.002 366.962 179.211 368.34 182.277L368.548 182.735C370.064 179.309 370.286 173.138 373.5 171.307C374.947 170.483 377.271 171.932 378.683 172.664C376.851 177.448 375.123 183.906 373.644 188.933C378.535 195.809 383.705 202.606 388.497 209.632C391.16 213.536 394.474 219.18 397.335 222.598C398.421 223.005 400.065 223.381 401.224 223.679C413.288 226.783 422.632 231.749 431.5 240.5C456.835 265.5 454.794 311.979 419 332C409.279 337.437 402.02 339.606 396.938 345.287C392.689 349.956 390.388 355.755 390.475 362.096C390.527 365.912 392.061 367.69 394.612 370.121C393.9 373.195 393.456 374.71 391.796 377.397C378.127 373.04 373.771 370.828 362.712 361.961C361.955 362.76 361.132 363.74 360.392 364.577C370.594 373.243 380.135 379.681 393.422 382.619C399.699 384.006 411.158 386.207 412.454 393.679C414.425 405.027 400.45 408.225 392.195 409.61C374.34 412.607 355.915 410.168 340.944 399.469C340.014 400.291 339.196 401.301 338.378 402.242C350.927 414.593 375.03 417.321 391.728 414.389C394.98 421.369 397.747 427.269 403.015 433.095C404.837 435.11 407.281 436.685 408.872 438.796C410.677 441.19 411.408 446.686 414.476 448.139C420.608 451.042 424.144 445.735 428.992 443.062C430.429 442.269 432.061 441.814 433.536 441.37C446.573 459.703 445.235 482.028 435.421 501.376C435.751 501.365 436.082 501.359 436.412 501.356C449.309 501.255 460.005 506.193 459.833 521.026C443.983 521.544 425.649 521.449 409.72 521.284C409.537 504.27 399.758 499.786 384.677 497.795C386.357 494.017 388.393 489.524 389.391 485.559C392.556 472.976 391.536 459.72 384.936 448.439C379.607 439.179 370.813 432.418 360.494 429.647C363.006 431.927 366.065 434.033 368.587 436.288C375.741 442.685 381.257 450.057 383.998 459.356C389.071 476.562 383.014 488.133 375.468 502.605C383.416 502.528 391.514 502.53 398.249 507.337C401.376 509.569 406.786 517.075 404.073 520.905C401.434 521.919 363.45 521.577 358.416 521.417C336.755 520.73 314.495 525.845 298.911 508.04C292.205 508.447 286.947 508.826 280.245 508.479C243.651 504.392 216.712 485.429 202.025 451.374C181.823 404.531 207.603 362.375 209.852 315.384C211.03 290.769 204.718 269.58 185.296 253.325C184.088 252.305 179.88 249.249 180.003 247.776C186.279 245.083 202.137 243.524 209.169 242.926C244.346 239.935 279.567 256.222 289.539 292.338C297.638 321.686 287.75 352.29 279.087 380.427C271.176 406.121 262.044 440.31 285.55 461.196C281.575 432.615 310.245 349.21 320.879 319.876C319.062 317.25 317.259 314.507 315.855 311.639C308.579 296.743 307.545 279.561 312.984 263.9C306.371 249.843 303.013 233.052 298.275 218.445C292.937 216.256 287.386 215.244 281.865 213.672C278.592 212.739 281.1 208.493 282.095 206.557C286.087 207.803 290.878 209.695 294.948 211.108C291.903 205.395 288.183 203.305 284.574 198.21C284.966 197.567 285.393 196.948 285.855 196.354C286.765 195.167 287.252 194.612 288.774 194.42C291.211 195.58 297.53 203.394 299.964 206.027C299.152 200.894 298.357 197.172 298.5 191.95C300.599 191.893 302.811 191.981 304.922 192.029C305.427 198.311 305.926 203.445 306.913 209.674C319.217 215.868 331.18 222.717 342.751 230.19C346.957 227.467 354.305 224.969 359.235 223.086C359.61 212.783 361.176 203.72 361.763 193.798C357.807 189.314 352.674 184.64 348.388 180.069C353.619 173.543 357.193 180.605 362.366 184.915C361.357 180.74 358.818 174.151 358.503 169.924C358.447 169.164 359.222 168.678 359.768 168.233ZM425.967 293.088C428.045 290.135 432.469 277.818 425.497 278.823C413.253 282.474 404.737 288.274 422.77 293.378C423.279 295.327 423.594 296.377 424.325 298.257C421.739 300.273 417.069 303.623 416.396 304.441C415.723 305.259 415.759 305.719 416.175 306.81C418.121 308.922 421.753 305.61 423.524 304.261C425.345 302.873 429.854 299.265 430.36 298.257C430.865 297.249 430.233 295.943 429.358 295.746C428.589 295.574 427.656 296.377 427.221 296.595C427.22 296.13 426.406 295.183 425.967 293.088ZM388.636 281.254C392.758 274.17 386.16 259.997 377.9 260.832C369.273 263.728 370.524 277.8 376.549 282.893C378.484 284.528 381.198 284.973 383.661 284.354C386.125 283.734 387.697 282.867 388.636 281.254ZM432.865 268.686C441.071 263.459 432.335 246.639 425.362 248.247C419.795 249.531 422.388 264.575 427.855 268.185C429.235 269.096 431.211 269.739 432.865 268.686Z" fill="#704A2D"/>
<path d="M460.19 77.2205C470.896 76.517 478.644 78.8791 485.935 87.074C489.294 84.2597 491.907 82.4346 496.161 81.0847C502.767 79.0076 509.928 79.6538 516.056 82.8787C522.883 86.4948 526.633 91.9567 528.8 99.1804C534.545 100.123 538.77 101.615 543.204 105.604C548.486 110.386 551.637 117.081 551.957 124.199C552.372 132.272 549.726 138.627 544.4 144.529C545.722 149.83 546.006 154.208 544.176 159.467C542.004 165.563 537.45 170.518 531.556 173.195C524.462 176.491 517.942 176.001 510.794 173.444C506.165 181.8 500.752 185.635 491.442 187.557C482.431 188.469 477.03 186.477 470.046 180.984C456.677 189.57 439.929 186.913 431.424 173.049C414.203 174.748 397.401 164.532 399.202 145.164C399.631 140.551 401.87 136.8 404.576 133.118C401.038 126.467 399.661 120.011 401.675 112.56C403.58 105.592 408.191 99.6736 414.482 96.1218C422.357 91.6267 429.649 91.688 438.119 93.9519C441.664 84.2971 450.36 78.8014 460.19 77.2205ZM485.222 99.2224C480.046 89.4559 474.4 82.7396 462.182 83.8748C449.743 85.1852 444.626 92.0667 442.915 103.957C435.921 100.136 430.379 97.703 422.183 100.152C416.958 101.684 412.553 105.225 409.932 109.999C407.464 114.633 406.928 120.056 408.444 125.084C409.59 128.825 411.232 130.8 413.51 133.842C409.255 137.723 406.151 141.333 405.788 147.446C405.132 158.479 415.615 166.368 425.867 166.509C429.474 166.568 432.04 166.035 435.473 165.17C437.486 170.726 439.958 174.872 445.604 177.262C455.452 181.432 463.725 178.419 470.673 171.261C474.774 176.291 478.401 180.17 485.422 180.909C486.881 181.05 488.35 181.053 489.809 180.919C500.864 179.07 504.372 173.207 506.965 163.139C512.807 167.011 517.189 169.95 524.793 168.398C529.547 167.449 533.688 164.553 536.213 160.413C539.829 154.493 539.159 148.678 536.206 142.768C541.314 138.449 544.566 134.396 545.168 127.394C545.657 121.891 543.887 116.426 540.264 112.255C536.913 108.469 532.178 106.193 527.129 105.941C525.751 105.875 524.261 105.927 522.879 105.972C522.342 99.8348 520.979 95.1783 516.039 91.0173C512.114 87.7182 507.008 86.1733 501.912 86.7429C496.92 87.2619 492.345 89.7617 489.212 93.6814C487.869 95.3795 486.47 97.4367 485.222 99.2224Z" fill="#704A2D"/>
<path d="M400.803 369.661C405.491 370.215 410.37 370.395 415.132 370.99C429.344 372.763 443.459 376.087 456.663 381.697C459.416 382.866 462.469 383.775 465.28 384.808C466.083 385.102 466.24 385.767 466.459 386.422C466.37 386.796 466.28 387.17 466.19 387.545C459.421 390.306 452.476 391.768 451.189 400.485C450.215 407.079 453.211 411.158 456.933 416.268L456.796 416.565C453.766 423.292 445.718 430.268 439.276 433.727C436.846 434.919 426.75 438.353 426.131 438.829C412.971 448.943 418.694 441.094 410.617 433.329C404.133 427.094 400.89 422.991 397.188 413.525C400.701 412.688 403.679 411.898 407.062 410.424C415.349 406.81 419.907 397.198 415.474 388.84C411.426 381.206 404.876 381.319 397.573 379.059C398.111 375.294 398.936 372.905 400.803 369.661Z" fill="#704A2D"/>
<path d="M448.485 322.182C451.893 323 454.765 327.632 456.81 330.452C450.546 333.952 447.717 336.545 444.777 343.009C455.291 346.442 465.202 350.508 472.595 359.935C476.94 365.474 478.641 376.309 472.987 382.236C471.968 383.305 465.387 380.596 463.815 379.819C457.666 376.776 451.497 374.617 444.94 372.497C432.348 369.239 420.214 366.405 407.157 365.816C403.326 365.053 394.38 366.816 395.171 360.674C397.766 340.543 420.3 339.61 436.542 341.709C438.894 333.243 442.051 327.916 448.485 322.182Z" fill="#704A2D"/>
<path d="M430.617 182.181C437.425 180.643 444.198 184.891 445.777 191.69C447.357 198.489 443.15 205.287 436.361 206.907C429.514 208.541 422.645 204.291 421.052 197.433C419.459 190.577 423.75 183.733 430.617 182.181ZM434.511 200.173C442.911 197.487 440.093 188.528 432.287 188.943C430.298 189.578 428.714 190.268 427.747 192.285C427.145 193.52 427.07 194.947 427.54 196.238C428.657 199.358 431.497 200.239 434.511 200.173Z" fill="#704A2D"/>
<path d="M468.122 392.136C474.169 391.469 474.518 400.328 473.767 404.455C472.791 409.82 468.828 415.457 462.683 414.287C459.36 412.213 456.341 409.094 455.625 405.11C455.163 402.466 455.791 399.749 457.366 397.577C460.122 393.697 463.851 392.971 468.122 392.136Z" fill="#704A2D"/>
<path d="M421.751 205.635C426.684 205.123 431.106 208.689 431.651 213.619C432.196 218.548 428.661 222.994 423.735 223.572C418.763 224.156 414.266 220.579 413.715 215.603C413.164 210.626 416.771 206.153 421.751 205.635ZM424.657 213.569C424.088 212.492 422.759 212.072 421.675 212.625C420.959 212.99 420.496 213.713 420.462 214.516C420.428 215.319 420.829 216.077 421.511 216.501C422.194 216.925 423.051 216.95 423.757 216.564C424.825 215.98 425.226 214.645 424.657 213.569Z" fill="#704A2D"/>
<path d="M414.783 566.688C416.398 566.688 417.737 567.001 418.797 567.628C419.858 568.231 420.654 569.014 421.184 569.979C421.739 570.943 422.015 571.956 422.015 573.017C422.015 574.077 421.739 575.114 421.184 576.127C420.63 577.115 419.785 577.923 418.652 578.55C417.543 579.177 416.145 579.49 414.458 579.49C414.458 579.49 414.445 579.49 414.421 579.49V579.526H414.458C416.41 579.526 418.025 579.876 419.303 580.575C420.581 581.274 421.534 582.166 422.161 583.251C422.787 584.336 423.1 585.481 423.1 586.687C423.1 587.579 422.92 588.447 422.558 589.291C422.221 590.135 421.702 590.906 421.003 591.605C420.304 592.281 419.436 592.823 418.399 593.232C417.362 593.618 416.157 593.812 414.783 593.812H386.322V566.688H414.783ZM438.554 566.688C438.868 567.846 439.169 569.003 439.458 570.16C439.772 571.317 440.086 572.475 440.399 573.632C440.712 574.789 441.014 575.946 441.303 577.104V577.14H441.339C441.363 577.116 441.375 577.104 441.375 577.104C441.617 576.236 441.857 575.367 442.098 574.499C442.339 573.631 442.581 572.763 442.822 571.896C443.087 571.028 443.34 570.16 443.582 569.292C443.823 568.424 444.063 567.556 444.304 566.688H460.723C459.397 569.099 458.072 571.51 456.746 573.921C455.42 576.332 454.081 578.742 452.731 581.153C451.405 583.564 450.078 585.976 448.752 588.387V593.812H433.745V588.351C432.901 586.904 432.057 585.457 431.213 584.011C430.394 582.564 429.561 581.117 428.717 579.671C427.898 578.224 427.066 576.79 426.222 575.367C425.378 573.921 424.535 572.474 423.691 571.027C422.871 569.581 422.039 568.135 421.196 566.688H438.554ZM491.784 575.802H476.016V577.862H491.241V582.962H476.016V585.06H492V593.812H461.37V566.688H491.784V575.802ZM400.57 581.461V584.68H405.742C406.392 584.68 406.875 584.511 407.188 584.174C407.525 583.836 407.695 583.45 407.695 583.017C407.695 582.8 407.659 582.606 407.586 582.438C407.514 582.245 407.405 582.076 407.26 581.932C407.14 581.763 406.971 581.642 406.754 581.569C406.562 581.473 406.332 581.425 406.067 581.425H400.606C400.605 581.425 400.593 581.437 400.57 581.461ZM400.606 575.838C400.582 575.838 400.57 575.85 400.57 575.874V579.093H405.561C405.995 579.093 406.357 579.02 406.646 578.875C406.935 578.706 407.152 578.502 407.296 578.261C407.441 577.996 407.513 577.718 407.513 577.429C407.513 577.019 407.369 576.657 407.08 576.344C406.814 576.006 406.417 575.838 405.886 575.838H400.606Z" fill="#D9D9D9"/>
<path d="M319.712 565.604C324.148 565.604 327.837 566.231 330.779 567.484C333.72 568.738 335.926 570.461 337.397 572.655C338.868 574.849 339.603 577.369 339.603 580.214C339.603 581.757 339.374 583.252 338.916 584.698C338.457 586.121 337.734 587.459 336.746 588.713C335.757 589.942 334.48 591.028 332.913 591.968C331.346 592.884 329.465 593.594 327.271 594.101C325.101 594.631 322.581 594.896 319.712 594.896C317.663 594.896 315.783 594.752 314.071 594.463C312.383 594.198 310.852 593.824 309.478 593.342C308.104 592.835 306.886 592.232 305.825 591.533C304.788 590.834 303.884 590.062 303.113 589.219C302.365 588.351 301.738 587.435 301.232 586.471C300.75 585.506 300.388 584.493 300.147 583.433C299.93 582.372 299.822 581.299 299.822 580.214C299.822 578.791 300.002 577.441 300.364 576.163C300.75 574.885 301.305 573.704 302.028 572.619C302.775 571.534 303.691 570.57 304.776 569.727C305.885 568.859 307.175 568.123 308.646 567.521C310.117 566.894 311.768 566.423 313.6 566.109C315.457 565.772 317.494 565.604 319.712 565.604ZM366.838 566.688C368.96 566.688 370.72 567.074 372.119 567.846C373.517 568.593 374.566 569.569 375.265 570.774C375.964 571.956 376.314 573.21 376.314 574.536C376.314 575.91 375.928 577.248 375.157 578.55C374.409 579.828 373.264 580.877 371.721 581.696C370.202 582.516 368.297 582.926 366.006 582.926H363.331V583.664H371.54L377.109 593.812H359.931C359.473 592.582 359.003 591.352 358.521 590.122C358.063 588.893 357.592 587.663 357.11 586.434C356.808 585.623 356.21 583.974 355.7 582.592V593.812H340.692V566.688H366.838ZM319.749 577.104C318.905 577.104 318.181 577.201 317.579 577.394C317 577.562 316.53 577.803 316.168 578.116C315.831 578.406 315.577 578.743 315.409 579.129C315.264 579.491 315.192 579.864 315.192 580.25C315.192 580.756 315.336 581.25 315.625 581.732C315.915 582.214 316.397 582.612 317.072 582.926C317.747 583.239 318.639 583.396 319.749 583.396C320.399 583.396 320.966 583.336 321.448 583.216C321.954 583.095 322.376 582.938 322.713 582.745C323.075 582.528 323.365 582.288 323.582 582.022C323.823 581.733 323.992 581.444 324.088 581.154C324.185 580.841 324.233 580.527 324.233 580.214C324.233 579.852 324.149 579.491 323.98 579.129C323.835 578.767 323.594 578.442 323.256 578.152C322.919 577.839 322.461 577.586 321.882 577.394C321.304 577.201 320.592 577.104 319.749 577.104ZM355.736 576.588H355.7V580.814H359.895C360.377 580.814 360.799 580.819 361.161 580.675C361.546 580.53 361.86 580.337 362.101 580.096C362.342 579.855 362.523 579.59 362.643 579.301C362.764 578.987 362.772 578.868 362.772 578.555C362.772 578.121 362.617 577.812 362.359 577.424C362.103 577.04 361.481 576.863 361.468 576.859C361.468 576.859 360.664 576.552 359.895 576.552H355.772L355.736 576.588Z" fill="#704A2D"/>
<path d="M232.833 580.937C232.833 581.298 232.906 581.612 233.05 581.877C233.219 582.142 233.424 582.372 233.665 582.564C233.93 582.733 234.219 582.865 234.533 582.962C234.87 583.058 235.208 583.106 235.545 583.106C236.245 583.106 236.872 582.926 237.426 582.564C237.981 582.203 238.258 581.672 238.258 580.973V566.688H253.266V583.794C253.266 585.65 252.76 587.278 251.748 588.676C250.759 590.05 249.421 591.207 247.733 592.147C246.045 593.064 244.141 593.751 242.019 594.209C239.922 594.667 237.763 594.896 235.545 594.896C233.785 594.896 232.037 594.751 230.301 594.462C228.59 594.173 226.974 593.727 225.456 593.124C223.961 592.521 222.635 591.786 221.478 590.918C220.345 590.026 219.452 588.989 218.801 587.808C218.15 586.602 217.825 585.264 217.825 583.794V566.688H232.833V580.937ZM208.461 566.688C210.077 566.688 211.415 567.001 212.476 567.628C213.537 568.231 214.332 569.014 214.863 569.979C215.417 570.943 215.695 571.956 215.695 573.017C215.695 574.077 215.417 575.114 214.863 576.127C214.308 577.115 213.465 577.923 212.332 578.55C211.223 579.177 209.824 579.49 208.136 579.49H208.1V579.526H208.136C210.089 579.526 211.704 579.876 212.982 580.575C214.26 581.274 215.213 582.166 215.839 583.251C216.466 584.336 216.78 585.481 216.78 586.687C216.78 587.579 216.598 588.447 216.237 589.291C215.899 590.135 215.381 590.906 214.682 591.605C213.983 592.28 213.115 592.823 212.079 593.232C211.042 593.618 209.836 593.812 208.461 593.812H180V566.688H208.461ZM271.258 566.688C271.572 567.846 271.873 569.003 272.163 570.16C272.476 571.317 272.79 572.475 273.103 573.632C273.416 574.789 273.718 575.946 274.007 577.104V577.14H274.043C274.068 577.116 274.08 577.104 274.08 577.104C274.321 576.236 274.561 575.367 274.802 574.499C275.043 573.631 275.285 572.763 275.526 571.896C275.791 571.028 276.045 570.16 276.286 569.292C276.527 568.424 276.767 567.556 277.008 566.688H293.427C292.101 569.099 290.776 571.51 289.45 573.921C288.124 576.332 286.785 578.742 285.435 581.153C284.109 583.564 282.783 585.976 281.457 588.387V593.812H266.449V588.351C265.605 586.904 264.761 585.457 263.917 584.011C263.098 582.564 262.265 581.117 261.421 579.671C260.602 578.224 259.77 576.79 258.926 575.367C258.082 573.921 257.239 572.474 256.395 571.027C255.575 569.581 254.744 568.135 253.9 566.688H271.258ZM194.25 581.461V584.68H199.42C200.071 584.68 200.554 584.511 200.868 584.174C201.205 583.836 201.373 583.45 201.374 583.017C201.374 582.8 201.337 582.606 201.265 582.438C201.193 582.245 201.084 582.076 200.94 581.932C200.819 581.763 200.65 581.642 200.433 581.569C200.24 581.473 200.011 581.425 199.747 581.425H194.286C194.286 581.425 194.273 581.437 194.25 581.461ZM194.286 575.838C194.262 575.838 194.25 575.85 194.25 575.874V579.093H199.24C199.674 579.093 200.035 579.02 200.325 578.875C200.614 578.706 200.831 578.502 200.976 578.261C201.121 577.996 201.193 577.718 201.193 577.429C201.193 577.019 201.048 576.657 200.759 576.344C200.494 576.006 200.095 575.838 199.565 575.838H194.286Z" fill="#D9D9D9"/>
</svg>
